<svg version="1.1" xmlns="http://www.w3.org/2000/svg" viewBox="0 0 4231.268229166666 2142.198028795039" width="4231.268229166666" height="2142.198028795039">
  <!-- svg-source:excalidraw -->
  
  <defs>
    <style>
      @font-face {
        font-family: "Virgil";
        src: url("https://excalidraw.com/Virgil.woff2");
      }
      @font-face {
        font-family: "Cascadia";
        src: url("https://excalidraw.com/Cascadia.woff2");
      }
    </style>
  </defs>
  <rect x="0" y="0" width="4231.268229166666" height="2142.198028795039" fill="#ffffff"></rect><g stroke-linecap="round" transform="translate(10 323.4144042395408) rotate(0 431.5859375 710.69921875)"><path d="M0.76 0.11 C325.11 0.63, 649.06 2.09, 862.79 0.54 M-0.19 0.23 C221.78 1.88, 444.07 1.5, 863.11 0.19 M862.94 -0.46 C860.01 489.86, 860 979.19, 862.85 1421.42 M863.01 0.02 C866.26 403.34, 866.15 806.24, 863.29 1421.79 M863.21 1420.73 C610.03 1418.5, 356.27 1418.81, -0.02 1422.06 M863.48 1421.55 C532.36 1421.35, 201.32 1421.77, -0.01 1421.32 M0.62 1422.08 C2.34 877.98, 1.63 336.1, -0.33 -0.03 M-0.03 1421.25 C-3.15 1061.19, -2.73 701.63, 0.04 -0.38" stroke="#000000" stroke-width="1" fill="none"></path></g><g stroke-linecap="round" transform="translate(28.0703125 341.55502923954083) rotate(0 413.63671875 166.6953125)"><path d="M0.7 -0.31 C320.25 -1.25, 638.79 -1, 827.46 -0.66 M0.19 0.05 C166.26 2.58, 333.22 1.82, 827.67 0.11 M825.98 0.05 C828.61 133.88, 827.03 266.1, 826.9 332.1 M827.25 0.39 C828.98 108.21, 827.94 216.09, 826.9 332.9 M827.07 333.5 C551.9 335.78, 275.28 334.9, -0.51 332.59 M827.24 333.58 C608.87 330.98, 390.55 330.69, -0.32 333.25 M0.18 333.6 C1.16 230.72, 1.15 127.93, -0.39 0.51 M0.52 333.9 C1.44 225.58, 0.61 118.62, 0.49 -0.19" stroke="#000000" stroke-width="1" fill="none"></path></g><g stroke-linecap="round" transform="translate(304.5078125 714.8909667395408) rotate(0 137.078125 13.5546875)"><path d="M0.76 -0.47 C103.43 1.26, 204.96 -1.1, 273.32 1.32 M-0.59 -0.38 C86.82 1.16, 174.53 1.1, 274.06 0.03 M272.7 1.39 C275.31 7.23, 272.75 12.48, 275.11 26.04 M273.58 -0.96 C273.57 8.24, 273.63 14.95, 274.99 27.38 M274.31 27.77 C199.78 26.47, 122.11 28.47, 1.2 26.46 M273.99 27.69 C174.66 27.66, 74.57 27.48, -0.67 27.29 M1.46 28.16 C-0.6 15.54, 0.94 6.36, -0.95 -0.14 M0.08 27.33 C0.53 18.25, -0.88 9.83, 0.64 0.92" stroke="#000000" stroke-width="1" fill="none"></path></g><g stroke-linecap="round" transform="translate(28.53125 780.9222167395408) rotate(0 102.66015625 163.83593749999997)"><path d="M-0.74 1.12 C42.27 -1.03, 84.48 -0.07, 205.38 0.23 M0.21 0.75 C46.6 2.14, 95.61 2.05, 204.93 -0.52 M205.23 0.36 C206.12 108.48, 205.5 219.05, 206.25 327.66 M205.95 0.29 C205.96 74.37, 206.32 148.58, 205.92 327.79 M204.55 326.81 C143.07 326.6, 84.17 328.12, -1.05 326.6 M204.85 328.33 C134.09 329.34, 63.52 328.73, -0.82 326.92 M1.23 326.76 C-1.47 198.19, -0.47 66.45, 1.02 0.98 M0.13 327.26 C2.14 250.01, 1.88 173.21, 0.6 0.04" stroke="#000000" stroke-width="1" fill="none"></path></g><g stroke-linecap="round" transform="translate(339.27734375 779.9769042395408) rotate(0 102.66015625 163.83593749999997)"><path d="M0.9 0.33 C75.14 2.78, 150.75 2.1, 204.19 1.55 M0.53 0.59 C62.55 0.81, 125.13 0.18, 205.61 0.45 M204.4 -0.67 C207.74 113.39, 206.15 226.22, 203.97 327.84 M204.65 0.67 C204.75 95.32, 205.54 189.62, 205.84 328.28 M205.85 326.02 C139.32 326.23, 69.28 326.53, -1.23 329.16 M205.42 327.89 C141.48 327.58, 79.8 326.29, 0.17 327.15 M0.01 328.53 C2.81 228.05, 1.06 127.05, 1.26 0.27 M0.67 327.86 C-0.69 252.53, -1.75 178.1, 0.09 -0.02" stroke="#000000" stroke-width="1" fill="none"></path></g><g stroke-linecap="round" transform="translate(650.0234375 780.4456542395408) rotate(0 102.66015625 163.83593749999997)"><path d="M0.12 -0.42 C55.89 -1.34, 113.21 -3.14, 206.13 1.08 M0.04 -0.88 C41.27 1.08, 83.06 1.46, 205.35 -0.75 M204.33 0.78 C206.9 68.91, 207.77 136.33, 204.32 326.75 M205.81 0.06 C205.02 83.98, 205.01 168.94, 204.64 328.16 M206.37 326.21 C125.62 328.38, 42.66 325.58, 1.78 327.28 M204.81 328.3 C139.85 327.9, 74.8 326.76, -0.83 327.05 M0.55 328.42 C-1.65 218.15, -0.71 107.01, 0.17 0.45 M0.35 327.99 C-0.93 252.15, -0.8 176.28, 0.62 0.43" stroke="#000000" stroke-width="1" fill="none"></path></g><g stroke-linecap="round" transform="translate(304.5078125 1154.2894042395408) rotate(0 137.078125 13.5546875)"><path d="M-0.27 1.25 C56.03 -0.43, 113.58 -0.99, 273.92 -0.41 M-0.22 -0.57 C77.6 1.66, 154.56 1.16, 273.95 0.09 M276.06 1.56 C273.93 10.73, 273.25 16.85, 273.95 26.86 M275 0.5 C273.32 7.88, 274.89 16.58, 274.21 27.51 M273.9 27.05 C213.87 28.03, 153.77 28.6, -1.34 27.92 M273.42 27.27 C210.39 28.18, 146.51 28.37, -0.12 26.54 M1.02 26.47 C-0.36 21.08, 0.74 13.92, -0.62 0.84 M-0.99 26.7 C-1.11 19.81, -0.03 9.95, 0.19 0.03" stroke="#000000" stroke-width="1" fill="none"></path></g><g stroke-linecap="round" transform="translate(34.29296875 1229.9612792395408) rotate(0 246.296875 163.8359375)"><path d="M0.55 -0.32 C131.61 -0.34, 264.09 0.69, 492.71 -0.73 M0 0.1 C156.74 -1.44, 313.67 -1.65, 492.78 0.4 M493.85 -0.72 C492.99 66.55, 492.53 132.44, 491.79 327.24 M493.01 -0.54 C491.14 76.86, 491.19 152.15, 492.64 327.17 M492.87 327.01 C298.62 329.97, 104.16 329.62, -0.61 327.04 M492.35 328.02 C362.13 329.87, 231.43 329.79, 0.16 327.63 M0.82 326.31 C2.27 207.77, 0.53 90.16, -0.33 0.11 M-0.16 328.06 C-1.54 205.95, -2.15 84.8, -0.06 0.53" stroke="#000000" stroke-width="1" fill="none"></path></g><g stroke-linecap="round" transform="translate(573.6796875 1229.0237792395408) rotate(0 137.078125 13.5546875)"><path d="M-0.81 -0.42 C90.91 0.34, 183.03 1.75, 273.08 -1.23 M0.2 0.41 C77.83 -0.46, 156.59 -0.35, 273.54 0.14 M272.29 -1.12 C275.19 7.03, 275.11 11.09, 273.07 28.3 M274.14 0.93 C274.93 6.87, 274.15 15.29, 274.07 26.53 M274.33 25.93 C165.92 25.04, 61.03 27.44, -0.83 27.4 M273.48 27.29 C217.94 25.84, 160.67 25.16, -0.34 27.33 M-1.42 27.8 C1.5 18.48, 0.94 12.47, 0.8 -1.42 M0.07 28.05 C0.38 17.84, -1.05 8.56, -0.38 -0.34" stroke="#000000" stroke-width="1" fill="none"></path></g><g stroke-linecap="round" transform="translate(573.6796875 1286.1097167395408) rotate(0 137.078125 13.5546875)"><path d="M1.46 0.87 C101.06 -1.48, 202.09 -0.73, 273.63 -0.51 M0.25 -0.4 C76.16 0.81, 151.02 1.63, 274.6 0.36 M273.51 0.25 C276.09 8.93, 275.96 16.77, 273.34 25.3 M274.22 0.08 C274.98 7.7, 273.57 16.56, 273.17 26.22 M274.54 25.71 C208.16 27.68, 143.34 27.53, 0.46 27.14 M274.8 27.13 C205.48 28.95, 137.64 29.22, 0.75 27.38 M1.22 26.95 C0.64 19.12, 1.28 11.74, -1.76 -0.06 M-0.8 26.21 C0.49 18.84, 0.23 11.22, -0.88 -0.65" stroke="#000000" stroke-width="1" fill="none"></path></g><g stroke-linecap="round" transform="translate(573.6796875 1349.7034667395408) rotate(0 137.078125 13.5546875)"><path d="M0.03 -0.78 C91.7 0.38, 187.34 -0.58, 273.87 0.93 M0.27 -0.11 C101.61 -2.43, 204.14 -2.12, 274.37 -0.09 M274.1 0.06 C276.08 8.14, 272.57 17.73, 275.66 27 M273.51 0.23 C273.83 8.68, 274.17 19.25, 273.97 26.85 M275.43 28.03 C180.62 25.54, 84.37 26.56, 1.09 28.58 M273.73 26.79 C169.44 26.65, 63.73 26.5, -0.65 26.63 M-0.43 27.78 C-1.14 21.93, -0.08 16.15, 1.97 0.29 M-0.86 27.43 C0.99 20.99, -0.62 15.76, -0.8 -0.7" stroke="#000000" stroke-width="1" fill="none"></path></g><g stroke-linecap="round" transform="translate(573.6796875 1414.6175292395408) rotate(0 137.078125 13.5546875)"><path d="M0.72 0.46 C91.7 1.82, 185.61 2, 273.47 0.2 M0.64 -0.16 C87.72 -2.43, 175.89 -1.79, 274.75 -0.55 M272.53 -1.13 C274.66 9.24, 274.59 18.04, 274.91 26.88 M273.25 -0.26 C274.91 8.48, 274.74 19.6, 273.7 26.42 M272.8 27.11 C192.77 26.3, 109.78 25.29, 0.63 25.7 M274.9 27.53 C190.8 26.91, 107.13 27.3, 0.28 27.49 M1.61 28.86 C-1.3 17.12, 1.39 8.84, -0.85 -0.54 M-0.54 27.66 C-0.37 21.66, 0.41 14.69, 0.33 0.58" stroke="#000000" stroke-width="1" fill="none"></path></g><g stroke-linecap="round" transform="translate(574.15625 1467.3987792395408) rotate(0 137.078125 13.5546875)"><path d="M-1.41 0.05 C70.26 -0.47, 141.24 -0.02, 273.84 -1.48 M0.38 0.34 C59.81 -1.28, 120.25 -0.09, 273.65 -0.26 M273.61 -1.26 C273.18 8.27, 273.12 21.12, 273.13 29.06 M274.73 -0.93 C274.01 8.55, 274.16 17.99, 273.83 27.83 M274.3 27.11 C207.49 28.23, 143.7 25.8, 1.5 28.48 M273.73 26.63 C191.43 26.87, 109.19 27.55, 0.44 27.27 M-0.3 26.37 C-0.81 21.48, -1.66 14.7, -0.05 -0.25 M0.18 27.34 C-0.54 18.22, 0.54 10.01, -0.51 -0.94" stroke="#000000" stroke-width="1" fill="none"></path></g><g stroke-linecap="round" transform="translate(574.15625 1531.0940917395405) rotate(0 137.078125 13.5546875)"><path d="M-0.57 0.62 C102.47 1.12, 207.36 0.59, 274.46 1.28 M-0.25 -0.18 C81.93 -0.32, 162.28 -1.22, 273.84 0.46 M272.67 -1.41 C274.89 7.3, 273.66 11.74, 276.04 28.41 M274.23 0.6 C274.81 10.68, 273.18 19.04, 273.27 27.16 M274.61 27.05 C176.98 26.8, 80.46 25, -0.43 26.12 M273.99 27.05 C183.55 26.62, 92.56 26.49, 0.14 26.56 M0.92 25.19 C-0.55 18.89, -0.02 8.87, 0.69 -1.97 M0.83 27.75 C-0.12 17.16, 0.2 4.93, -0.81 -0.66" stroke="#000000" stroke-width="1" fill="none"></path></g><g stroke-linecap="round" transform="translate(29.91796875 1582.4144042395408) rotate(0 413.63671875 70.12109375)"><path d="M0.26 -0.6 C194.29 0.37, 388.54 0.56, 827.96 -0.08 M-0.3 -0.35 C257.73 1.98, 515.09 1.83, 827.46 -0.07 M827.2 1.03 C824.9 42.21, 827.04 86.46, 827.68 141.76 M827.24 -0.38 C827.49 30.85, 827.18 60.93, 826.75 140.77 M827.65 139.71 C575.23 139.42, 323.44 139.18, -0.37 140.09 M827.39 139.87 C510.52 138.44, 194.03 138.38, -0.07 140.24 M0.13 139.99 C0.37 106.53, 0.7 74.67, -1.68 1.17 M-0.26 141.11 C0.17 107.74, 0.1 74.3, -0.58 -0.31" stroke="#000000" stroke-width="1" fill="none"></path></g><g stroke-linecap="round"><g transform="translate(434.06350020170214 272.1125677789263) rotate(0 -1.003649701243262 112.52589628628454)"><path d="M0.84 -0.42 C0.59 37.09, -1.56 187.5, -2.21 225.23 M-0.18 -1.69 C-0.47 36.01, -2.21 189.12, -2.85 226.74" stroke="#c92a2a" stroke-width="4" fill="none"></path></g><g transform="translate(434.06350020170214 272.1125677789263) rotate(0 -1.003649701243262 112.52589628628454)"><path d="M-13.43 199.4 C-10.41 204.67, -6.79 210.33, -3.02 227.03 M-13.7 197.95 C-9.84 206.65, -6.5 215.65, -3.57 226.86" stroke="#c92a2a" stroke-width="4" fill="none"></path></g><g transform="translate(434.06350020170214 272.1125677789263) rotate(0 -1.003649701243262 112.52589628628454)"><path d="M7.09 199.68 C5.2 205.03, 3.91 210.62, -3.02 227.03 M6.82 198.23 C4.2 206.93, 1.05 215.84, -3.57 226.86" stroke="#c92a2a" stroke-width="4" fill="none"></path></g></g><g stroke-linecap="round"><g transform="translate(426.10048521757125 514.0732704270891) rotate(0 -151.5805980785517 219.02138158082957)"><path d="M0.4 0.18 C-49.91 73.26, -252.03 365.94, -302.63 438.82 M-0.85 -0.78 C-51.25 71.9, -252.99 363.71, -303.56 436.87" stroke="#c92a2a" stroke-width="4" fill="none"></path></g><g transform="translate(426.10048521757125 514.0732704270891) rotate(0 -151.5805980785517 219.02138158082957)"><path d="M-295.68 407.91 C-297.13 413.79, -301.21 420.72, -303.5 435.92 M-295.96 407.67 C-298.62 416.85, -301.39 426.35, -303.05 437.3" stroke="#c92a2a" stroke-width="4" fill="none"></path></g><g transform="translate(426.10048521757125 514.0732704270891) rotate(0 -151.5805980785517 219.02138158082957)"><path d="M-278.8 419.58 C-284.27 422.76, -292.34 426.93, -303.5 435.92 M-279.08 419.34 C-287.08 424.77, -295.14 430.61, -303.05 437.3" stroke="#c92a2a" stroke-width="4" fill="none"></path></g></g><g stroke-linecap="round"><g transform="translate(130.8984375 954.7659667395408) rotate(0 317.7856250882149 -3.293299337071346)"><path d="M-1.05 -0.19 C105.01 -0.92, 530.36 -3.81, 636.62 -4.45 M0.6 -1.33 C106.49 -2.44, 529.9 -5.63, 635.77 -6.4" stroke="#c92a2a" stroke-width="4" fill="none"></path></g><g transform="translate(130.8984375 954.7659667395408) rotate(0 317.7856250882149 -3.293299337071346)"><path d="M607.34 4.37 C617.25 1.11, 627.04 -1.33, 633.88 -8.37 M606.75 4.04 C613.75 1.22, 621.07 -0.51, 635.9 -5.68" stroke="#c92a2a" stroke-width="4" fill="none"></path></g><g transform="translate(130.8984375 954.7659667395408) rotate(0 317.7856250882149 -3.293299337071346)"><path d="M607.19 -16.15 C617.13 -12.81, 626.98 -8.65, 633.88 -8.37 M606.6 -16.48 C613.59 -14.77, 620.95 -11.97, 635.9 -5.68" stroke="#c92a2a" stroke-width="4" fill="none"></path></g></g><g stroke-linecap="round"><g transform="translate(761.2738187909126 966.4837603830154) rotate(0 -309.7119469337491 218.59956099565613)"><path d="M0.59 -0.69 C-102.5 72.12, -515.86 363.59, -619.24 436.63 M-0.55 1.56 C-103.72 74.55, -516.68 365.59, -620.02 437.89" stroke="#c92a2a" stroke-width="4" fill="none"></path></g><g transform="translate(761.2738187909126 966.4837603830154) rotate(0 -309.7119469337491 218.59956099565613)"><path d="M-604 413.82 C-607.99 419.16, -610.71 423.96, -619.16 438.28 M-603.73 412.79 C-607.86 422.23, -614.69 429.84, -620.13 437.23" stroke="#c92a2a" stroke-width="4" fill="none"></path></g><g transform="translate(761.2738187909126 966.4837603830154) rotate(0 -309.7119469337491 218.59956099565613)"><path d="M-592.2 430.61 C-599.06 431.89, -604.67 432.57, -619.16 438.28 M-591.93 429.58 C-599.9 433.3, -610.67 435.29, -620.13 437.23" stroke="#c92a2a" stroke-width="4" fill="none"></path></g></g><g stroke-linecap="round"><g transform="translate(143.6953125 1404.0862792395408) rotate(0 276.9304782753857 -3.8306850314140775)"><path d="M1.03 0.09 C93.18 -1.19, 461.75 -6.35, 553.75 -7.75 M0.11 -0.91 C92.08 -2, 461.07 -5.25, 553.09 -6.32" stroke="#c92a2a" stroke-width="4" fill="none"></path></g><g transform="translate(143.6953125 1404.0862792395408) rotate(0 276.9304782753857 -3.8306850314140775)"><path d="M525.16 5.14 C535.05 -0.15, 544.54 -5.46, 552.58 -8.25 M525.52 3.57 C532.58 2.41, 539.54 -1.51, 552.27 -6.97" stroke="#c92a2a" stroke-width="4" fill="none"></path></g><g transform="translate(143.6953125 1404.0862792395408) rotate(0 276.9304782753857 -3.8306850314140775)"><path d="M524.95 -15.38 C534.91 -13.09, 544.47 -10.81, 552.58 -8.25 M525.32 -16.95 C532.39 -12.46, 539.41 -10.73, 552.27 -6.97" stroke="#c92a2a" stroke-width="4" fill="none"></path></g></g><g stroke-linecap="round"><g transform="translate(678.2193695752572 1423.4967856229357) rotate(0 -129.79692799195965 115.72396804537163)"><path d="M-0.36 0.51 C-43.71 38.7, -217.07 191.82, -260.45 230.25 M1.65 -0.26 C-41.8 38.62, -217.41 193.47, -261.25 231.71" stroke="#c92a2a" stroke-width="4" fill="none"></path></g><g transform="translate(678.2193695752572 1423.4967856229357) rotate(0 -129.79692799195965 115.72396804537163)"><path d="M-245.98 205.88 C-250.75 212.63, -253.19 220.75, -261.66 233.24 M-246.08 205.76 C-250.36 212.61, -254.29 218.45, -261.4 231.54" stroke="#c92a2a" stroke-width="4" fill="none"></path></g><g transform="translate(678.2193695752572 1423.4967856229357) rotate(0 -129.79692799195965 115.72396804537163)"><path d="M-232.44 221.31 C-241.03 223.82, -247.14 227.76, -261.66 233.24 M-232.54 221.18 C-240.19 224.18, -247.43 226.25, -261.4 231.54" stroke="#c92a2a" stroke-width="4" fill="none"></path></g></g><g stroke-linecap="round" transform="translate(1251.3203125 325.0438685252551) rotate(0 431.5859375 710.69921875)"><path d="M0.27 -0.54 C185.87 0.68, 370.53 0.7, 863.67 0.78 M0.14 0.13 C249.89 -3.27, 499.32 -3.03, 862.82 0.13 M863 -0.05 C863.09 337.06, 862.83 674.31, 863.34 1421.46 M863.15 0.25 C858.85 465.74, 859.12 931.14, 863.18 1421.2 M863.58 1421.84 C607.66 1424.06, 353.01 1423.56, 0.24 1421.13 M863.45 1421.6 C682.05 1418.44, 501.29 1418.17, -0.13 1421.48 M-0.14 1421.52 C3.11 999.07, 3.52 575.98, 0.26 0.12 M0.39 1421.61 C5.26 1020.07, 4.77 618.18, 0.35 -0.39" stroke="#000000" stroke-width="1" fill="none"></path></g><g stroke-linecap="round" transform="translate(1269.390625 343.18449352525505) rotate(0 413.63671875 166.6953125)"><path d="M-0.54 0.71 C191.89 -0.88, 383.35 -0.61, 828.05 -0.09 M0.13 0.31 C324.93 -0.99, 650.24 -1.52, 827.41 -0.25 M827.19 1.08 C825.25 96.44, 824.96 191.9, 827.38 333.76 M827.7 -0.06 C829.45 75.28, 829.31 149.79, 826.94 333.36 M827.71 333.08 C567.73 335.32, 307.73 335.3, -0.27 332.67 M827.48 333.25 C605.33 335.76, 382.93 335.54, 0.08 333.38 M0.2 333.02 C-1.32 253.21, -2.32 172.84, 0.2 -0.24 M0.35 333.98 C-0.49 261.93, -1.06 191.52, -0.66 -0.23" stroke="#000000" stroke-width="1" fill="none"></path></g><g stroke-linecap="round" transform="translate(1545.828125 716.520431025255) rotate(0 137.078125 13.5546875)"><path d="M1.39 0.89 C80.88 2.37, 161.86 2.95, 273.99 1.44 M0.6 -0.25 C107.5 -0.5, 213.66 -0.46, 273.67 -0.1 M275.75 -0.91 C275.03 5.1, 274.51 13.05, 274.71 25.6 M274.06 0.65 C274.71 10.66, 274.15 19.94, 274.11 27.25 M273.56 27 C170.84 27.19, 67 27.75, -1.4 26.62 M273.89 27.44 C216.9 28, 159.05 28.36, -0.02 26.65 M-0.55 27.53 C0.51 15.99, 0.7 7.29, -0.35 -1.73 M0.87 27.68 C-0.61 17.65, 0.6 7.78, -0.34 0.36" stroke="#000000" stroke-width="1" fill="none"></path></g><g stroke-linecap="round" transform="translate(1269.8515625 782.075118525255) rotate(0 102.66015625 163.8359375)"><path d="M1.02 0.5 C69.51 -0.53, 138.63 -1.83, 206.98 1.62 M-0.29 0.37 C69.04 -2.22, 137.88 -1.98, 205.21 -0.55 M204.7 0.64 C204.27 91.65, 205.3 183.11, 204.28 328.73 M205.76 0.39 C207.05 96.16, 206.4 192.28, 205.41 328.21 M205.2 328.23 C132.1 327.5, 60.77 325.36, -0.56 326.06 M205.7 327.87 C129.33 326.76, 53.99 327.02, -0.52 328.3 M0.29 327.99 C-1.07 235.44, -0.14 142.07, -1.19 0.53 M0.39 327.44 C-1.35 197.97, -1.83 66.85, 0.25 -0.1" stroke="#000000" stroke-width="1" fill="none"></path></g><g stroke-linecap="round" transform="translate(1580.59765625 781.606368525255) rotate(0 102.66015625 163.8359375)"><path d="M0.5 1.07 C48.81 0.69, 95.21 0.61, 206.94 0.62 M0.37 0.24 C67.69 0.89, 136.41 0.48, 204.77 -0.19 M205.96 -0.92 C207.4 96.51, 207.49 191.77, 206.38 327.58 M205.71 0.31 C205.11 118.62, 205.08 238.01, 205.86 328.02 M205.88 326.43 C133.05 326.95, 58.11 326.99, -1.61 328.9 M205.52 327.43 C132.87 328.62, 60.98 327.92, 0.63 327.52 M0.32 326.94 C1.07 224.63, 0.38 120, 0.53 1.34 M-0.23 327.48 C-1.35 211.74, -2.19 97.39, -0.1 -0.38" stroke="#000000" stroke-width="1" fill="none"></path></g><g stroke-linecap="round" transform="translate(1891.34375 782.075118525255) rotate(0 102.66015625 163.8359375)"><path d="M1.07 1.11 C81.67 -0.7, 161.53 1.11, 205.95 0.6 M0.24 -0.79 C77.89 -1.31, 155.08 -1.31, 205.13 -0.05 M204.4 0.28 C204.41 124.77, 203.27 249.85, 205.23 328.54 M205.63 0.01 C206.43 95.14, 206.87 190.87, 205.67 328.05 M204.08 328.2 C151.02 326.64, 97.35 326.64, 1.23 328.59 M205.08 327.39 C150.95 328.05, 95.7 328.71, -0.15 327.81 M-0.73 328.12 C-0.28 238.15, -1.67 149.63, 1.34 0.71 M-0.19 328.27 C-1.94 200.77, -1.03 74.24, -0.38 0.64" stroke="#000000" stroke-width="1" fill="none"></path></g><g stroke-linecap="round" transform="translate(1545.828125 1155.442306025255) rotate(0 137.078125 13.5546875)"><path d="M0.96 1.51 C97.76 0.17, 197.26 -0.73, 274.68 1.21 M-0.69 0.26 C72.83 -0.68, 146.15 -0.75, 274.11 0.62 M274.57 0.16 C274.83 5.4, 275.82 13.68, 275.42 26.92 M274.17 -0.5 C274.27 10.02, 275.1 20.28, 274.7 26.72 M274.62 26.59 C192.35 25.13, 111.95 26.69, 0.8 26.58 M273.91 27.26 C180.28 26.09, 87 26.41, 0.12 26.9 M0.66 27.41 C-0.41 16.67, 0.71 11.64, 1.04 1.73 M0.87 26.14 C-0.25 17.8, -0.06 7.22, 0.93 0.84" stroke="#000000" stroke-width="1" fill="none"></path></g><g stroke-linecap="round" transform="translate(1275.13671875 1231.114181025255) rotate(0 246.296875 163.8359375)"><path d="M0.8 -0.09 C162.28 -0.51, 323.32 -0.98, 493.24 -0.27 M0.14 -0.26 C168.1 1.55, 336.22 1.79, 492.92 -0.19 M492.7 0.38 C490.05 114.61, 490.99 227.97, 492.46 328.56 M492.25 -0.03 C493.69 117.62, 493.95 234.54, 492.33 327.63 M492.32 326.93 C329.03 327.53, 166.56 328.7, -0.28 328.02 M492.67 327.66 C333.62 327.31, 175.07 327.08, -0.11 327.76 M0.2 327.43 C0.01 222.26, 2.54 116.49, 1.19 0.78 M-0.67 327.44 C0.87 240.44, 0.24 154.06, 0.58 -0.67" stroke="#000000" stroke-width="1" fill="none"></path></g><g stroke-linecap="round" transform="translate(1815 1230.176681025255) rotate(0 137.078125 13.5546875)"><path d="M-0.17 1.44 C100.04 -1.53, 197.78 -0.86, 273.65 0.64 M-0.49 -0.1 C89.3 -0.87, 179.52 -0.08, 273.8 0.36 M274.71 -1.51 C275.75 6.18, 275.47 12.44, 275.45 28.26 M274.11 0.14 C274.95 9.85, 274.71 18.3, 274.09 27.42 M272.75 26.62 C209.65 27.46, 148.76 25.86, 0.66 27.45 M274.13 26.65 C199.8 27.39, 124.46 27.31, 0.17 27.29 M-0.35 25.38 C0.68 22.37, 0.95 15.46, 1.13 -0.68 M-0.34 27.47 C-0.38 19.16, 0.7 13.17, -0.97 0.97" stroke="#000000" stroke-width="1" fill="none"></path></g><g stroke-linecap="round" transform="translate(1815 1287.262618525255) rotate(0 137.078125 13.5546875)"><path d="M1.44 1.41 C99.8 0.75, 199.72 -0.27, 274.8 0.43 M-0.1 -0.48 C57.64 1.29, 116.22 0.98, 274.52 -0.52 M272.65 1.54 C274.05 9.95, 273.99 18.68, 275.3 28 M274.29 0.79 C274.53 8.72, 273.64 16.27, 274.47 26.41 M273.67 25.7 C184.84 25.99, 92.85 25.84, 0.35 26.69 M273.7 27.66 C200.6 27.17, 127.1 27.22, 0.18 26.7 M-1.73 27.88 C1.91 19.12, 1.69 10.2, -0.68 -0.55 M0.36 26.96 C-0.29 17.56, 1.1 5.17, 0.97 -0.06" stroke="#000000" stroke-width="1" fill="none"></path></g><g stroke-linecap="round" transform="translate(1815 1350.856368525255) rotate(0 137.078125 13.5546875)"><path d="M1.41 0.54 C109.46 -0.77, 217.37 -1.34, 274.58 -1.38 M-0.48 -0.16 C91.23 0.89, 182.2 0.63, 273.64 0.16 M275.69 -0.13 C275.49 8.16, 275.52 17.84, 275.05 27.14 M274.94 0.51 C274.69 6.4, 274.08 13.89, 273.46 27.41 M272.75 28.18 C201.94 25.91, 128.78 26.78, -0.42 26.61 M274.71 26.98 C186.64 25.65, 99.05 26.04, -0.41 27.36 M0.77 29.06 C1.08 20.31, 1.18 9.36, -0.55 1.73 M-0.15 26.55 C1.02 22.45, -0.88 17.07, -0.06 -0.92" stroke="#000000" stroke-width="1" fill="none"></path></g><g stroke-linecap="round" transform="translate(1815 1415.770431025255) rotate(0 137.078125 13.5546875)"><path d="M0.54 0.52 C80.48 -2.44, 159.18 -1.51, 272.77 0.51 M-0.16 -0.04 C65.7 0.97, 130.52 0.8, 274.32 0.06 M274.03 1.26 C273.76 10.17, 275.1 18.65, 274.18 26.12 M274.66 0.55 C273.81 7.95, 274.51 15.33, 274.45 26.77 M275.23 27.91 C216.14 25.84, 159.53 24.77, -0.5 27.41 M274.02 27.23 C192.45 28.79, 111.36 28.21, 0.25 27.22 M1.95 28.14 C1.97 20.58, -0.45 11.24, 1.73 -1.94 M-0.56 28.04 C0.74 18.94, 0.87 12.65, -0.92 0.11" stroke="#000000" stroke-width="1" fill="none"></path></g><g stroke-linecap="round" transform="translate(1815 1468.5516810252548) rotate(0 137.078125 13.5546875)"><path d="M0.52 1.21 C107.22 -0.1, 215.88 -2.13, 274.67 -0.97 M-0.04 0.62 C78.44 0.81, 157.05 0.61, 274.22 0.21 M275.42 -0.19 C275.66 7.24, 275.26 12.21, 273.16 27.02 M274.7 -0.38 C274.3 8.82, 273.67 17.3, 273.82 26.21 M274.96 26.58 C201.2 28.92, 126.52 28.08, 0.31 27.07 M274.27 26.9 C208.13 26.93, 141.36 27, 0.11 26.97 M1.04 28.84 C1.03 20.64, -0.65 17.26, -1.94 -0.69 M0.93 27.95 C-0.93 18.96, -0.02 7.96, 0.11 0.27" stroke="#000000" stroke-width="1" fill="none"></path></g><g stroke-linecap="round" transform="translate(1815 1532.2469935252548) rotate(0 137.078125 13.5546875)"><path d="M1.21 -0.51 C107.82 -0.29, 212.97 -0.2, 273.18 -0.2 M0.62 -0.35 C65.54 -0.4, 130.52 0.18, 274.37 -0.59 M273.96 1.29 C275.28 11.11, 274.17 19.44, 274.07 27.38 M273.77 -0.07 C274.61 9.57, 274.59 20.19, 273.25 26.79 M273.62 27.77 C217.07 27.79, 158.8 28.51, -0.04 26.2 M273.94 27.27 C172.63 27.02, 71 27.55, -0.14 26.44 M1.73 28.24 C-0.95 17.38, 1.47 6.81, -0.69 0.72 M0.84 26.14 C1.12 19.32, -0.77 11.76, 0.27 -0.35" stroke="#000000" stroke-width="1" fill="none"></path></g><g stroke-linecap="round" transform="translate(1270.76171875 1583.5673060252548) rotate(0 413.63671875 70.12109375)"><path d="M-0.26 0.33 C277.4 -3.29, 554.63 -3.08, 827.17 -0.5 M-0.18 0.19 C230.4 -2.55, 461.37 -2.53, 826.97 0.31 M828.57 1.15 C829.05 41.18, 827.17 82.22, 827.55 141.82 M827.21 0.32 C827.34 49.46, 827.7 97.42, 826.96 139.34 M827.61 140.42 C521.83 138.85, 216.97 139.08, -0.47 140.81 M827.36 140.34 C593.07 139.46, 359.34 139.26, -0.35 140.4 M1.13 139.56 C-1.28 86.21, -2.66 28.02, 0.72 -0.3 M-0.97 141.21 C-1.36 105.05, -1.19 71.98, -0.35 0.49" stroke="#000000" stroke-width="1" fill="none"></path></g><g stroke-linecap="round" transform="translate(2274.4895833333335 334.4886229895408) rotate(0 431.5859375 710.69921875)"><path d="M0.45 0.57 C307.44 0.47, 615.42 0.22, 863.3 0.58 M0.26 0.08 C176.02 0.1, 352.52 -0.25, 863.24 0.17 M862.69 0.26 C867.03 566.3, 867.36 1131.6, 863.71 1420.97 M863.14 0.34 C865.16 418.94, 865.82 838.67, 863.28 1421.09 M863.43 1421.22 C529.6 1421.85, 197.17 1421.71, -0.49 1421.13 M863.21 1421.26 C550.5 1418.25, 237.98 1418.11, 0.01 1421 M0.44 1421.58 C-1.04 1079.05, -1.18 735.19, -0.3 -0.09 M-0.13 1421.01 C-4.35 939.16, -4.12 456.48, 0.11 0.1" stroke="#000000" stroke-width="1" fill="none"></path></g><g stroke-linecap="round" transform="translate(3358.0963541666665 560.8818521562075) rotate(0 431.5859375 444.1985677083335)"><path d="M-0.73 0.07 C229.75 -1.61, 460.05 -1.8, 862.89 0.01 M0.11 0.22 C173.19 -0.69, 346.43 -0.76, 862.87 -0.15 M862.49 -0.26 C863.79 255.76, 865.36 512.52, 863.84 888.61 M862.88 -0.14 C866.69 288.45, 866.93 577.29, 863.27 888.41 M863.75 887.82 C532.92 886.95, 202.48 887.4, 0.18 887.66 M862.86 888.6 C534.56 891.08, 206.19 891.07, 0.31 888.23 M-0.11 888.98 C2.14 592.41, 2.08 295.04, -0.8 0.52 M0.1 888.56 C-1.6 546.36, -1.93 203.33, 0.17 0.27" stroke="#000000" stroke-width="1" fill="none"></path></g><g stroke-linecap="round" transform="translate(2291.3359375 348.8466959062075) rotate(0 415.5877976190477 40.96354166666667)"><path d="M0.19 -0.69 C245.08 -0.04, 491.72 -0.66, 831.71 0.26 M-0.38 -0.28 C175.47 2.16, 351.44 2.47, 831.06 0.14 M830.53 1.47 C831.69 15.44, 830.78 33.57, 829.67 82.94 M830.57 -0.8 C830.98 16.98, 830.6 34.93, 831.49 82.26 M831.62 82.63 C614.3 80.56, 396.68 79.9, 0.28 81.43 M831.4 81.75 C498.42 80.54, 166.65 80.1, -0.01 82.15 M0.62 81.88 C-0.26 57.72, -1.78 32.38, 1.04 -0.46 M-0.7 82.92 C0.66 55.57, 0.02 30.41, 0.87 0.7" stroke="#000000" stroke-width="1" fill="none"></path></g><g stroke-linecap="round" transform="translate(2569.918154761905 773.8799920371599) rotate(0 137.078125 13.5546875)"><path d="M0.98 -0.13 C106.71 0.73, 213.04 1.18, 273.42 1.34 M0.66 -0.47 C59.89 -0.79, 120.13 -0.66, 273.69 0.66 M274.74 -1.27 C273.62 10.78, 274.83 18.16, 274.78 26.74 M273.71 0.07 C274.07 7.35, 273.52 13.92, 273.64 26.17 M273.51 28.46 C216.16 28.98, 154.98 30.48, -0.47 26.16 M273.94 27.85 C176.28 28.21, 79.01 28.07, 0.76 27.7 M-1.5 28.3 C-0.65 19.47, 0.65 11.12, 1.65 -0.36 M0.64 27.71 C0.26 18.7, -0.9 8.56, 0.3 0.9" stroke="#000000" stroke-width="1" fill="none"></path></g><g stroke-linecap="round" transform="translate(2293.941592261905 839.0942777514457) rotate(0 102.66015625 163.83593749999994)"><path d="M-0.15 0.98 C77.16 0.36, 155.38 -2, 206.85 -1.42 M-0.54 -0.61 C65.83 -2.38, 132.3 -2.09, 206.08 0.39 M204.45 -0.49 C206.67 120.12, 205.34 239.99, 205.07 327.24 M205.37 0.11 C207.35 67.41, 206.86 135, 204.67 327.1 M206.87 329.37 C143.84 326.65, 84.21 326.38, -1.09 328.69 M206.17 327.7 C126.27 327.9, 46.27 328.03, 0.67 327.81 M0.82 327.24 C0.85 228.24, 1 129.04, -0.25 0.63 M0.41 327.85 C2.5 229.42, 1.98 132.62, 0.62 0.58" stroke="#000000" stroke-width="1" fill="none"></path></g><g stroke-linecap="round" transform="translate(2604.687686011905 838.9659295371599) rotate(0 102.66015625 163.83593749999994)"><path d="M0.98 -0.54 C51.49 0.13, 99.09 1.68, 203.9 0.41 M-0.61 -0.48 C64.43 0.79, 129.98 1.86, 205.71 0.58 M204.83 1.01 C206.32 102.93, 206.41 206.24, 204.89 326.39 M205.43 0.04 C204.06 126.81, 203.96 253.88, 204.75 327.66 M207.02 327.55 C124.31 330.85, 43.29 328.17, 1.02 329.26 M205.35 328.47 C140.5 330.05, 75.07 330.09, 0.14 327.71 M-0.43 328.31 C2.14 233.32, 2.82 137.17, 0.63 -0.03 M0.17 328.34 C-2.07 256.21, -1.24 185.06, 0.58 -0.51" stroke="#000000" stroke-width="1" fill="none"></path></g><g stroke-linecap="round" transform="translate(2915.433779761905 839.4346795371599) rotate(0 102.66015625 163.83593749999994)"><path d="M-0.54 1.52 C74.58 -1.85, 150.74 -2.42, 205.73 0.32 M-0.48 -0.83 C78.67 0.72, 158.73 1.65, 205.9 0.13 M206.33 0.34 C203.57 108.27, 203.64 215.24, 204.04 328.89 M205.36 -0.26 C205.02 83.37, 204.82 166.88, 205.31 328.31 M205.19 327.41 C153.84 328.88, 98.09 330.43, 1.58 328.02 M206.11 328.42 C150.17 328.6, 94.44 327.87, 0.04 327.59 M0.63 328.13 C-0.57 255.09, -1.59 180.88, -0.03 -1.12 M0.67 327.05 C-1.21 208.51, -0.74 89.52, -0.51 0.36" stroke="#000000" stroke-width="1" fill="none"></path></g><g stroke-linecap="round" transform="translate(2295.729538690477 1218.814701858589) rotate(0 102.66015625 163.8359375)"><path d="M-0.68 -1.27 C69.19 -0.12, 141.74 1.07, 205.75 -0.99 M0.28 0.14 C50.98 2.12, 101.51 1.67, 205.49 -0.04 M204.53 1.26 C206.69 118.42, 204.99 237.98, 204.39 327.82 M205.03 0.33 C203.63 73.5, 203.31 146.2, 205.2 327.26 M205.35 328.13 C143.48 327.02, 82.64 325.88, 1.1 327.79 M205.9 327.77 C161.57 327.86, 115.52 326.97, -0.65 327.57 M-0.2 326.62 C0.28 252.67, 0.78 175.14, -0.01 0.48 M-0.24 327.2 C-0.24 241.71, -0.28 156.79, 0.49 -0.62" stroke="#000000" stroke-width="1" fill="none"></path></g><g stroke-linecap="round" transform="translate(2606.475632440477 1218.6863536443032) rotate(0 102.66015625 163.8359375)"><path d="M-1.27 -0.84 C49.88 2.37, 102.06 1.12, 204.33 -0.95 M0.14 0.29 C74.46 -0.43, 147.58 -0.41, 205.28 0.57 M206.58 0.48 C205.82 109.93, 206.16 221.37, 205.47 326.61 M205.65 0.48 C207.47 66.88, 207.1 133.33, 204.91 327.66 M205.78 327.13 C149.76 327.63, 92.02 328.81, 0.12 326.18 M205.42 328.38 C154.72 328, 102.56 328.22, -0.1 327.07 M-1.05 326.97 C1.61 243.45, 0.28 159.62, 0.48 -0.54 M-0.47 327.49 C-0.72 228.24, -0.3 129.74, -0.62 0.6" stroke="#000000" stroke-width="1" fill="none"></path></g><g stroke-linecap="round" transform="translate(2916.745163690477 1219.6316661443032) rotate(0 102.66015625 163.8359375)"><path d="M-0.84 -1.11 C52.15 1.38, 101.36 0.31, 204.37 1.04 M0.29 0.88 C47.86 0.13, 95.61 -0.34, 205.89 0.35 M205.8 -0.8 C202.81 116.8, 203.09 234.67, 204.26 326.35 M205.8 0.44 C204.52 123.29, 204.24 246.03, 205.31 327.51 M204.78 328.73 C162.83 328.06, 121.6 328.26, -1.49 326.78 M206.03 328.34 C148.32 327.67, 92.42 327.78, -0.6 327.28 M-0.7 328.88 C0.13 235.02, 0.32 143.08, -0.54 0.04 M-0.18 327.05 C0.58 227.83, 1.29 127.79, 0.6 -0.03" stroke="#000000" stroke-width="1" fill="none"></path></g><g stroke-linecap="round" transform="translate(2293.6653645833344 1589.7505277514456) rotate(0 413.63671875 70.12109375)"><path d="M0.01 0.77 C251.64 1.75, 501.87 1.82, 827.48 -0.42 M-0.32 0.31 C324.69 2.37, 649.98 2.85, 826.95 0.03 M828.2 1.66 C828.05 50.72, 826.91 104.22, 826.8 140.82 M826.98 0.5 C828.45 41.09, 829.1 82.64, 826.7 140.37 M826.86 139.79 C590.32 141.67, 353.18 140.92, -0.22 140.6 M827.18 139.94 C613.41 141.09, 398.85 141.22, -0.3 140.01 M-1.51 141.19 C0.23 98.43, -3.07 53.5, 1.46 -0.49 M0.25 139.25 C0.97 101.14, 1.32 61.45, 0.62 0.32" stroke="#000000" stroke-width="1" fill="none"></path></g><g stroke-linecap="round" transform="translate(2320.6770833333344 530.2388090014458) rotate(0 86.1640625 89.37890625000001)"><path d="M74.86 1.14 C85.69 -1.79, 98.36 -0.56, 109.33 2.74 C120.3 6.04, 131.78 13.16, 140.7 20.94 C149.62 28.73, 157.64 38.65, 162.85 49.46 C168.06 60.26, 171.41 73.5, 171.97 85.76 C172.53 98.01, 170.37 111.61, 166.2 122.99 C162.03 134.38, 155.37 145.61, 146.93 154.06 C138.49 162.51, 126.73 169.63, 115.59 173.68 C104.44 177.73, 91.52 179.32, 80.05 178.36 C68.58 177.4, 56.99 173.53, 46.75 167.92 C36.5 162.32, 25.88 154.33, 18.58 144.73 C11.28 135.14, 5.72 122.17, 2.92 110.35 C0.11 98.53, -0.14 85.59, 1.75 73.82 C3.63 62.04, 7.91 49.68, 14.22 39.7 C20.53 29.71, 28.58 20.35, 39.61 13.92 C50.63 7.5, 72.76 3.04, 80.36 1.15 C87.95 -0.74, 85.16 1.34, 85.17 2.58 M78.22 -0.51 C89.25 -2.92, 104.21 1.28, 115.64 5.35 C127.07 9.42, 138.67 15.55, 146.82 23.9 C154.98 32.26, 160.09 44.38, 164.59 55.48 C169.08 66.57, 173.98 78.6, 173.78 90.48 C173.59 102.37, 168.82 115.64, 163.41 126.78 C158 137.92, 149.98 149.16, 141.32 157.3 C132.66 165.44, 122.55 172.11, 111.44 175.61 C100.32 179.11, 86.32 180.23, 74.62 178.29 C62.92 176.36, 51.41 170.21, 41.24 163.99 C31.06 157.77, 20.22 150.92, 13.56 140.97 C6.9 131.01, 3.34 116.18, 1.28 104.25 C-0.77 92.32, -1.29 81.11, 1.24 69.37 C3.78 57.63, 9.06 43.63, 16.51 33.8 C23.95 23.97, 35.32 15.89, 45.9 10.39 C56.48 4.9, 74.3 2.19, 79.98 0.84 C85.65 -0.51, 79.98 0.97, 79.95 2.31" stroke="#000000" stroke-width="1" fill="none"></path></g><g stroke-linecap="round" transform="translate(2620.8098958333344 533.1255277514458) rotate(0 86.1640625 89.37890625000003)"><path d="M113.95 4.58 C124.86 6.94, 136.14 15.72, 144.72 23.87 C153.29 32.02, 160.67 42.44, 165.38 53.48 C170.1 64.51, 173.13 77.97, 173 90.09 C172.88 102.2, 169.71 115.16, 164.65 126.14 C159.58 137.13, 151.52 148.02, 142.62 155.98 C133.71 163.93, 122.14 170.21, 111.22 173.88 C100.3 177.55, 88.75 179.32, 77.11 177.98 C65.47 176.63, 51.65 171.91, 41.38 165.81 C31.11 159.71, 22.17 151.05, 15.47 141.4 C8.76 131.75, 3.27 119.83, 1.16 107.92 C-0.95 96.01, 0.02 82.02, 2.8 69.93 C5.59 57.83, 11 45.11, 17.86 35.36 C24.72 25.6, 33.89 17.21, 43.96 11.4 C54.03 5.58, 65.9 1.31, 78.29 0.49 C90.68 -0.34, 110.77 4.77, 118.3 6.44 C125.83 8.11, 123.88 9.16, 123.48 10.5 M50.28 7.19 C59.63 1.37, 71.8 1.38, 83.58 1.36 C95.37 1.34, 110.12 2.51, 121 7.08 C131.88 11.65, 141.32 20.13, 148.87 28.77 C156.41 37.4, 162.34 47.34, 166.27 58.88 C170.2 70.42, 173.03 85.6, 172.46 98.02 C171.9 110.44, 168.82 123.17, 162.88 133.41 C156.94 143.65, 146.53 152.14, 136.81 159.47 C127.08 166.81, 115.64 174.57, 104.54 177.42 C93.43 180.27, 81.24 178.92, 70.19 176.57 C59.13 174.22, 48.11 170.14, 38.22 163.33 C28.34 156.52, 17.14 146.36, 10.89 135.71 C4.64 125.06, 1.82 111.62, 0.73 99.41 C-0.36 87.21, 0.87 74.09, 4.34 62.49 C7.81 50.89, 13.77 38.65, 21.52 29.81 C29.28 20.97, 45.86 12.55, 50.89 9.46 C55.92 6.38, 51.25 10.2, 51.71 11.3" stroke="#000000" stroke-width="1" fill="none"></path></g><g stroke-linecap="round" transform="translate(2920.9427083333344 528.7583402514457) rotate(0 86.1640625 89.37890625000001)"><path d="M49.56 8.99 C59.07 3.06, 71.7 1.48, 83.34 0.93 C94.98 0.39, 108.51 1.26, 119.39 5.73 C130.28 10.2, 140.77 18.75, 148.64 27.76 C156.52 36.77, 162.84 48.32, 166.64 59.78 C170.44 71.24, 172.36 84.38, 171.46 96.53 C170.57 108.69, 166.61 121.96, 161.27 132.72 C155.93 143.48, 148.44 153.79, 139.44 161.09 C130.44 168.38, 118.8 173.72, 107.28 176.49 C95.76 179.27, 81.81 179.99, 70.33 177.76 C58.84 175.54, 47.86 170.21, 38.38 163.15 C28.89 156.08, 19.54 145.87, 13.41 135.38 C7.29 124.9, 3.26 112.02, 1.64 100.26 C0.02 88.49, 0.41 76.3, 3.69 64.79 C6.98 53.28, 11.71 41.39, 21.34 31.21 C30.97 21.02, 52.56 8.46, 61.47 3.67 C70.37 -1.11, 74.21 1.08, 74.78 2.51 M122.85 6.87 C133.82 10.66, 143.71 21.36, 151.32 30.71 C158.92 40.06, 165.02 51.72, 168.49 62.99 C171.97 74.26, 173.69 86.66, 172.15 98.33 C170.62 110.01, 165.19 122.49, 159.28 133.05 C153.37 143.61, 145.87 154.42, 136.69 161.69 C127.51 168.96, 115.74 174.19, 104.19 176.66 C92.64 179.13, 78.88 178.97, 67.37 176.51 C55.85 174.05, 44.49 168.96, 35.09 161.88 C25.69 154.79, 16.84 144.52, 10.96 134.01 C5.09 123.49, 0.73 110.88, -0.18 98.78 C-1.09 86.68, 1.64 72.9, 5.53 61.4 C9.43 49.91, 15.32 39.03, 23.18 29.82 C31.03 20.61, 42.22 11.25, 52.64 6.14 C63.06 1.02, 74.41 -1.03, 85.68 -0.86 C96.95 -0.68, 114.29 5.69, 120.26 7.17 C126.23 8.66, 121.7 6.52, 121.51 8.05" stroke="#000000" stroke-width="1" fill="none"></path></g><g stroke-linecap="round" transform="translate(2568.4036458333344 454.6138090014458) rotate(0 137.078125 13.5546875)"><path d="M0.88 0.48 C90.01 -1.41, 176.62 -0.78, 272.9 -0.7 M0.19 -0.56 C95.28 -1.65, 192.16 -0.92, 274.26 0.66 M275.47 -0.04 C272.84 5.33, 274.94 14.52, 273.69 28.74 M274.29 0.6 C275.05 8.22, 274.38 18.73, 274.8 27.9 M273.48 28.34 C181.15 26.24, 88.06 27.43, 0.92 27.94 M273.41 26.69 C178.7 26.1, 82.69 24.7, 0.44 27.4 M-1.35 27.27 C1.63 16.22, -1.75 10.28, -0.41 -1.13 M-0.38 26.16 C-0.57 21.56, -0.1 15.56, 0.98 0.91" stroke="#000000" stroke-width="1" fill="none"></path></g><g stroke-linecap="round" transform="translate(3375.9304315476197 579.1307360847791) rotate(0 415.5877976190477 40.963541666666686)"><path d="M0.4 -0.78 C270 3.73, 538.22 3.1, 831.94 0.05 M-0.22 -0.27 C169.97 -2.5, 339.71 -2.9, 831.58 0.16 M831.38 -0.65 C828.91 31.16, 828.85 63.66, 831.93 83.6 M832.14 0.77 C831.1 23.72, 832.55 45.51, 831.39 81.95 M830.75 81.67 C605.2 85.03, 379.54 83.87, -0.61 82.16 M831.25 81.53 C518.84 81.15, 206.7 81.4, 0.36 82.09 M-1.38 83.37 C-1.17 60.91, -0.8 41.4, -0.69 -1.55 M0.96 82.46 C-0.89 53.03, -0.39 26.46, 0.95 -0.51" stroke="#000000" stroke-width="1" fill="none"></path></g><g stroke-linecap="round" transform="translate(3380.0436197916665 685.0552152514457) rotate(0 121.4794921875 365.33203124999994)"><path d="M1.6 0.89 C81.76 -1.1, 165.56 1.23, 244.54 -0.85 M-0.44 -0.13 C74.8 -0.57, 150.93 -0.47, 242.87 0.62 M242.55 -0.77 C244.36 258.22, 244.74 517.21, 242.71 730.14 M242.95 0.16 C243.5 211.95, 243.79 424.14, 242.71 730.4 M241.78 731.22 C193.14 732, 143.7 732.39, 1.21 729.36 M242.97 729.94 C157.02 730.36, 72.64 728.86, -0.26 730.5 M0.19 730.2 C0.58 445.29, 0.18 159.93, -0.77 0.39 M0.36 730.3 C-1.07 513.83, -1.34 296.91, -0.18 0.12" stroke="#000000" stroke-width="1" fill="none"></path></g><g stroke-linecap="round" transform="translate(3659.815104166667 705.3208402514459) rotate(0 102.66015625 163.83593749999994)"><path d="M-0.56 -0.35 C82.38 1.45, 162.14 2.03, 204.3 0.74 M-0.86 0.44 C65.92 -0.44, 131.64 -0.01, 204.5 0.26 M204.71 0.41 C203.65 93.12, 204.68 183.84, 204.55 327.57 M205.26 -0.2 C203.94 116.2, 204.77 232.29, 205.78 328.15 M205.09 326.45 C141.19 324.54, 75.49 327.63, 1.21 327.16 M205.35 327.31 C145.79 326.38, 88.36 326.22, 0.56 328.43 M0.94 328.65 C-1.64 201.05, -0.79 75.51, -0.55 -0.41 M0.26 327.67 C0.01 227.98, 0.93 127.45, -0.64 -0.68" stroke="#000000" stroke-width="1" fill="none"></path></g><g stroke-linecap="round" transform="translate(3983.711588541667 703.5630277514457) rotate(0 102.66015625 163.83593749999994)"><path d="M0.06 -0.72 C56.99 -0.15, 118.16 -0.47, 206.45 1.51 M0.61 0.63 C79.22 -0.41, 159.15 0.34, 204.96 -0.27 M205.84 -0.01 C204.08 100.17, 205.91 198.64, 204.04 326.31 M205.46 0.45 C203.52 129, 202.9 257.63, 205.19 327.11 M204.07 329.32 C160.16 326.33, 113.28 328.97, 0.74 328.74 M205.13 328.29 C124.56 326.9, 45.49 326.02, -0.83 327.46 M-0.72 327.07 C0.83 212.18, 0.25 93.99, 0.62 -1.1 M0.65 328.15 C2.05 244.3, 2.42 162.25, 0.21 0.3" stroke="#000000" stroke-width="1" fill="none"></path></g><g stroke-linecap="round" transform="translate(3664.453776041667 1087.762246501446) rotate(0 102.66015625 163.83593749999994)"><path d="M-0.22 0.15 C72.33 -2.81, 144.55 -2.5, 203.88 0.77 M0.15 0.76 C72.41 1.07, 145.11 1.12, 204.92 0.19 M205.76 0.83 C206.15 118.28, 207.38 234.85, 204.55 327.2 M205.45 0.28 C204.5 104.67, 204.81 209.73, 205.93 327.32 M205.12 328.69 C147.63 326.71, 94.53 329.19, 0.95 327.9 M205.14 326.94 C127.74 326.9, 50.5 326.37, -0.86 327.67 M0.09 326.82 C-0.68 219.96, -0.49 113.7, 0.48 -0.9 M-0.31 327.99 C1.03 243.31, 1.3 158.67, -0.26 -0.38" stroke="#000000" stroke-width="1" fill="none"></path></g><g stroke-linecap="round" transform="translate(3986.338541666667 1087.5376371264456) rotate(0 102.66015625 163.83593749999994)"><path d="M0.23 1.37 C75.43 -1.97, 153.34 -2.43, 205.01 0.5 M0 0.23 C62.8 0.87, 124.79 1.21, 205.59 -0.55 M204.42 -0.57 C204.19 113.22, 204.29 226.16, 205.01 328.31 M204.94 0.59 C206.3 103.6, 206.83 208.51, 205.7 327.09 M205.6 327.96 C158.24 326.49, 108.16 327.04, 0.27 329.12 M205.94 327.29 C160.33 329.57, 114.98 328.81, -0.81 328.16 M-0.36 326.55 C1.45 223.46, 1.33 119.26, -1.06 0.56 M0.52 328.19 C0.09 214.84, -0.52 103.06, 0.24 -0.66" stroke="#000000" stroke-width="1" fill="none"></path></g><g stroke-linecap="round" transform="translate(3400.1130446129264 710.4360746264462) rotate(0 104.91104392874013 10.373912072059966)"><path d="M0.37 0.84 C43.91 -1.98, 85.52 -1.03, 209.77 -1.57 M0.24 -0.08 C49.24 0.18, 100.66 -0.23, 209.85 0.86 M208.66 1.19 C210.14 8.35, 211.03 15.34, 208.79 19.11 M210.16 -0.93 C210.3 6.9, 209.26 12.56, 209.58 19.77 M210.44 20.62 C165.72 20.63, 122.3 21.31, 0.92 20.17 M209.02 20.05 C142.12 20.67, 73.65 19.81, -0.18 20.91 M1.66 18.82 C-1.11 14.15, -1.56 7.09, 0.64 0.47 M-0.73 20.74 C0.21 15.69, 0.73 8.74, 0.95 -0.5" stroke="#000000" stroke-width="1" fill="none"></path></g><g stroke-linecap="round" transform="translate(3400.1130446129264 757.3518661630568) rotate(0 104.91104392874013 10.373912072059966)"><path d="M0.84 1.27 C57.35 -0.14, 115.83 -0.43, 208.25 -1.08 M-0.08 -0.84 C59.71 -0.02, 118.46 -0.48, 210.68 0.53 M211.01 0.49 C210.74 5.8, 210.25 7.8, 208.18 20.76 M208.89 0.36 C210.34 6.71, 209.77 14.53, 208.84 19.8 M209.7 19.61 C150.56 19.8, 92.86 22.32, -0.58 21.16 M209.13 20.88 C141.14 18.58, 70.73 18.89, 0.16 20.63 M-1.93 19.44 C-0.48 14.72, -1.6 12.84, 0.47 -0.46 M-0.01 20.9 C0.7 15.69, -0.5 10.22, -0.5 -0.1" stroke="#000000" stroke-width="1" fill="none"></path></g><g stroke-linecap="round" transform="translate(3400.1130446129264 804.2676576996674) rotate(0 104.91104392874013 10.373912072059966)"><path d="M1.27 -0.18 C83.52 -0.12, 166.5 -2.45, 208.74 -0.32 M-0.84 0.56 C67.77 0.32, 134.59 1.02, 210.36 -0.77 M210.32 0.88 C211.09 7.02, 208.67 11.62, 209.83 21.87 M210.18 0.66 C209.21 4.87, 209.65 8.57, 208.87 20.53 M208.68 19.86 C136.56 20.4, 67.42 20.03, 0.41 21.3 M209.95 21.61 C157.05 19.29, 105.08 19.45, -0.12 19.92 M-1.31 20.09 C-1.93 14.49, 0.47 12.25, -0.46 -0.47 M0.16 21.44 C0.84 14.12, 1.1 8.01, -0.1 0.48" stroke="#000000" stroke-width="1" fill="none"></path></g><g stroke-linecap="round" transform="translate(3400.1130446129264 851.1834492362781) rotate(0 104.91104392874013 10.373912072059966)"><path d="M-0.18 0.25 C68.05 -1.39, 133.01 -2.42, 209.5 0.37 M0.56 0.49 C68.88 1.79, 138.31 2.3, 209.05 0.17 M210.7 1.39 C210.33 3.98, 208.31 10.04, 210.94 19.35 M210.48 -0.68 C209.72 6.68, 208.65 12.9, 209.6 21.16 M208.94 19.15 C139.36 20.48, 68.74 19.97, 0.56 19.85 M210.68 20.25 C165.83 20.84, 122 20.9, -0.83 20.01 M-0.66 18.99 C-1.57 13.45, 0.67 4.4, -0.47 -0.1 M0.69 21.43 C-0.51 16.99, -0.5 11.23, 0.48 0.31" stroke="#000000" stroke-width="1" fill="none"></path></g><g stroke-linecap="round" transform="translate(3400.1130446129264 898.0992407728887) rotate(0 104.91104392874013 10.373912072059966)"><path d="M0.25 0.76 C72.86 -1.38, 144.73 -0.13, 210.19 0.49 M0.49 0.15 C61.1 -0.32, 122.68 -1.95, 209.99 -0.52 M211.21 0.39 C208.84 5.82, 209.89 16.04, 208.43 21.42 M209.14 0.09 C209.65 3.31, 208.94 8.36, 210.24 21.1 M208.23 20.54 C149.29 19.24, 87.33 20.37, -0.9 19.15 M209.33 20.75 C163.17 22.72, 116.77 21.73, -0.74 21.48 M-1.76 18.97 C0.78 17, -0.32 11.84, -0.1 -1.46 M0.68 20.24 C0.92 14.04, -0.14 8.82, 0.31 -0.15" stroke="#000000" stroke-width="1" fill="none"></path></g><g stroke-linecap="round" transform="translate(3400.1130446129264 945.0150323094994) rotate(0 104.91104392874013 10.373912072059966)"><path d="M0.76 -0.05 C76.51 -1.34, 155.84 0.11, 210.31 -0.16 M0.15 0.03 C43.85 -0.49, 85.22 -0.85, 209.31 0.53 M210.21 -1.03 C208.28 6.75, 211.03 12.08, 210.5 18.88 M209.91 -0.24 C208.98 6.02, 209.74 14.36, 210.17 20.68 M209.61 21.67 C159.81 19.49, 111.51 18.18, -1.6 19.36 M209.82 20.56 C143.95 19.59, 76.93 18.97, 0.73 19.89 M-1.77 21.39 C0.54 15.42, -0.4 10.91, -1.46 -0.02 M-0.51 21.7 C-0.64 14.09, 0.34 7.95, -0.15 -0.18" stroke="#000000" stroke-width="1" fill="none"></path></g><g stroke-linecap="round" transform="translate(3400.1130446129264 991.93082384611) rotate(0 104.91104392874013 10.373912072059966)"><path d="M-0.18 -0.92 C44.84 -1.78, 91.68 -0.06, 210.75 0.03 M-0.43 -0.13 C74.88 -0.65, 149.78 -0.09, 210.14 -0.53 M208.24 -0.13 C211.9 3.88, 211.52 11.3, 210.86 21.35 M210.04 -0.49 C209.45 5.42, 210.31 12.29, 210.72 21.04 M211 20.32 C158.13 20.79, 103.67 23.14, 0.09 22.15 M210.17 21.59 C160.09 22.57, 111.44 22.83, -0.16 19.91 M-0.96 21.86 C0.95 14.47, 1.29 7.9, -1.05 -1 M-0.02 21.36 C-0.24 14.44, 0.75 7.12, 0.49 -0.78" stroke="#000000" stroke-width="1" fill="none"></path></g><g stroke-linecap="round" transform="translate(3400.1130446129264 1038.8466153827208) rotate(0 104.91104392874013 10.373912072059966)"><path d="M-0.92 -1.39 C59.15 -0.6, 120.93 1.12, 209.85 1.01 M-0.13 -0.04 C70.45 0.85, 142.16 1.22, 209.29 -0.21 M209.69 2 C207.84 8.69, 209.53 15.18, 210.43 20.45 M209.33 -0.31 C209.19 6.13, 210.14 12.06, 210.11 20.24 M209.39 21.28 C128.26 20.3, 50.4 22.08, 1.4 19.57 M210.66 19.98 C155.36 21.03, 100.71 21.31, -0.83 20.81 M1.11 21.56 C-0.1 17.08, -0.31 10.06, -1 0.77 M0.61 20.44 C0.83 15.91, 0.53 10.21, -0.78 -0.68" stroke="#000000" stroke-width="1" fill="none"></path></g><g stroke-linecap="round" transform="translate(3400.1130446129264 1085.7624069193312) rotate(0 104.91104392874013 10.373912072059966)"><path d="M-1.39 -0.9 C72.22 1.8, 146.93 1, 210.83 0.69 M-0.04 -0.7 C62.28 0.12, 124.99 -0.27, 209.61 0.36 M211.82 -1.85 C211.27 4.69, 210.69 10.28, 209.53 20.13 M209.51 -0.5 C210.42 5.39, 210.76 10.17, 209.31 21.57 M210.36 19.39 C129.39 21.29, 52.43 21.7, -1.18 20.07 M209.05 21.2 C131 23.23, 52.9 21.68, 0.06 20.15 M0.81 20.83 C1.25 12.56, -0.95 3.64, 0.77 -0.68 M-0.31 21.46 C0.68 16.1, 0.49 9.84, -0.68 0.47" stroke="#000000" stroke-width="1" fill="none"></path></g><g stroke-linecap="round" transform="translate(3400.1130446129264 1132.678198455942) rotate(0 104.91104392874013 10.373912072059966)"><path d="M-0.9 -0.79 C61.67 2.39, 121.71 2.47, 210.51 -0.05 M-0.7 -0.05 C52.55 0.41, 104.87 -0.12, 210.18 -0.59 M207.97 1.62 C209.66 5.62, 210.41 8.88, 209.2 19.51 M209.32 0.55 C210.17 7.58, 210.01 12.86, 210.64 21.5 M208.46 19.06 C133.84 21.4, 57.27 20.13, -0.68 22.05 M210.28 20.3 C139.34 18.97, 66.59 19.19, -0.6 21.53 M0.08 21.9 C-0.25 14.46, -1.11 11.05, -0.68 -1.12 M0.72 21.43 C0.29 15.06, -0.91 7.71, 0.47 -0.98" stroke="#000000" stroke-width="1" fill="none"></path></g><g stroke-linecap="round" transform="translate(3400.1130446129264 1179.5939899925525) rotate(0 104.91104392874013 10.373912072059966)"><path d="M-0.79 0.83 C52.93 0.97, 105.01 1.63, 209.77 -0.86 M-0.05 -0.15 C60.29 0.94, 119.73 1.83, 209.23 -0.7 M211.44 -0.15 C211.07 6.69, 209.74 11.56, 208.58 21.19 M210.37 0.45 C210.65 5.5, 209.25 11.25, 210.57 21.42 M208.13 21.74 C152.06 20.72, 92.94 18.65, 1.3 21.44 M209.38 21.46 C126.76 20.87, 44.09 21.11, 0.78 20.33 M1.15 20.62 C-1.14 12.37, 0.69 5.3, -1.12 -0.05 M0.68 21.17 C0.55 12.48, -0.62 6.23, -0.98 0.36" stroke="#000000" stroke-width="1" fill="none"></path></g><g stroke-linecap="round" transform="translate(3400.1130446129264 1226.5097815291633) rotate(0 104.91104392874013 10.373912072059966)"><path d="M0.83 0.93 C46.46 1.83, 93.55 0.77, 208.96 -0.25 M-0.15 0.32 C61.39 -0.1, 124.2 -0.48, 209.12 -0.06 M209.67 1.04 C210.24 8, 209.01 15.35, 210.27 19.77 M210.27 0.89 C210.01 5.08, 210.54 11.93, 210.49 20.51 M210.82 20.84 C141.91 17.8, 70.52 20.28, 0.7 22.43 M210.54 20.58 C164.27 19.87, 119.79 20.59, -0.42 21.24 M-0.13 19.7 C-1.01 14.45, -0.69 5.49, -0.05 1.22 M0.42 21.24 C-0.93 14.48, 0.32 8.61, 0.36 0.1" stroke="#000000" stroke-width="1" fill="none"></path></g><g stroke-linecap="round" transform="translate(3400.1130446129264 1273.4255730657737) rotate(0 104.91104392874013 10.373912072059966)"><path d="M-1.36 1.04 C58.61 -0.05, 119.3 0.6, 208.64 -1.62 M0.71 0.47 C81.46 0.5, 163.4 1.03, 209.81 -0.24 M208.73 -1.89 C208.27 6.69, 210.38 17.64, 208.25 21.08 M210.63 0.2 C210.57 5.91, 209.18 11.18, 210.33 21.68 M209.73 20.58 C148.09 21.74, 85.22 21.35, -0.59 20.86 M210.65 21.28 C139.3 19.73, 67.59 19.23, 0.61 20.62 M1.25 21.93 C-0.34 13.35, 0.94 4.92, 1.4 -0.73 M0.01 21.57 C-0.09 16.37, 0.7 10.19, -0.28 -0.32" stroke="#000000" stroke-width="1" fill="none"></path></g><g stroke-linecap="round" transform="translate(3400.1130446129264 1320.3413646023846) rotate(0 104.91104392874013 10.373912072060023)"><path d="M1.04 -0.45 C75.18 2.61, 152.59 0.24, 208.2 1.56 M0.47 -0.03 C82.25 -1.06, 165.78 -1.49, 209.58 0.73 M207.94 -1.61 C208.78 7.28, 211.78 11.99, 210.16 19.8 M210.03 0.64 C210.59 6.52, 210.61 15.05, 210.76 20.71 M209.66 21.21 C129.2 20.43, 46.84 20.07, 0.12 21.4 M210.36 20.94 C150.44 21.7, 90.72 23.1, -0.12 21.4 M1.18 20.5 C0.23 14.63, -0.44 7.86, -0.73 -1.12 M0.82 20.7 C0.78 14.79, -0.34 7.04, -0.32 -0.16" stroke="#000000" stroke-width="1" fill="none"></path></g><g stroke-linecap="round" transform="translate(3400.1130446129264 1367.257156138995) rotate(0 104.91104392874013 10.373912072059966)"><path d="M-0.45 -1.57 C46.93 -2.01, 90.31 -2.71, 211.38 1.69 M-0.03 -0.74 C49.36 -1.18, 97.87 -1.22, 210.55 0.24 M208.21 -1.25 C210.21 10, 208.13 16.81, 208.88 21.76 M210.47 0.67 C209.24 7.92, 210.5 15.38, 209.79 21.65 M210.28 22.09 C150.61 21.53, 91.26 20.69, 0.65 20.43 M210.01 20.57 C155.62 21.2, 103.61 21.74, 0.66 21.14 M-0.25 21.12 C0.9 12.8, 1.27 4.72, -1.12 0.47 M-0.04 21.44 C0.75 14.95, -0.28 9.71, -0.16 0.1" stroke="#000000" stroke-width="1" fill="none"></path></g><g stroke-linecap="round"><g transform="translate(1406.1861979166665 957.4380277514457) rotate(0 805.5327099734218 4.693336131935951)"><path d="M1.16 -0.43 C269.47 1.37, 1342.38 8.12, 1610.75 9.81 M0.31 -1.69 C268.39 0.34, 1341.4 9.01, 1609.84 11.08" stroke="#c92a2a" stroke-width="4" fill="none"></path></g><g transform="translate(1406.1861979166665 957.4380277514457) rotate(0 805.5327099734218 4.693336131935951)"><path d="M1580.86 21.25 C1591.38 18.23, 1601.82 12.72, 1609.41 11.65 M1581.13 22.03 C1588.22 18.46, 1596.74 15.66, 1608.91 11.87" stroke="#c92a2a" stroke-width="4" fill="none"></path></g><g transform="translate(1406.1861979166665 957.4380277514457) rotate(0 805.5327099734218 4.693336131935951)"><path d="M1581.03 0.73 C1591.32 5.4, 1601.7 7.57, 1609.41 11.65 M1581.3 1.51 C1588.31 3.31, 1596.79 5.88, 1608.91 11.87" stroke="#c92a2a" stroke-width="4" fill="none"></path></g></g><g stroke-linecap="round"><g transform="translate(3012.0260416666665 1011.8618558764457) rotate(0 -321.1514171481133 199.67628543655866)"><path d="M0 0.7 C-106.9 67.42, -535.56 333.17, -642.3 399.33 M-1.46 0.02 C-107.93 66.5, -533.65 331.2, -640.22 397.62" stroke="#c92a2a" stroke-width="4" fill="none"></path></g><g transform="translate(3012.0260416666665 1011.8618558764457) rotate(0 -321.1514171481133 199.67628543655866)"><path d="M-620.54 372.02 C-624.77 380.45, -631.69 384.22, -642.14 396.93 M-621.24 373.68 C-627.99 381.19, -633.75 389.62, -640.33 397.75" stroke="#c92a2a" stroke-width="4" fill="none"></path></g><g transform="translate(3012.0260416666665 1011.8618558764457) rotate(0 -321.1514171481133 199.67628543655866)"><path d="M-609.69 389.45 C-616.23 393.94, -625.59 393.79, -642.14 396.93 M-610.4 391.11 C-620.57 393.06, -629.75 395.99, -640.33 397.75" stroke="#c92a2a" stroke-width="4" fill="none"></path></g></g><g stroke-linecap="round"><g transform="translate(2421.8795572916665 1437.5845121264458) rotate(0 303.73468540170234 -5.04834499512333)"><path d="M0.35 0.44 C101.55 -0.87, 504.98 -7.3, 606.2 -8.95 M-0.92 -0.38 C100.73 -1.91, 507.04 -8.68, 608.39 -10.54" stroke="#c92a2a" stroke-width="4" fill="none"></path></g><g transform="translate(2421.8795572916665 1437.5845121264458) rotate(0 303.73468540170234 -5.04834499512333)"><path d="M581.12 -1.44 C588.21 -1.32, 593.45 -3.78, 608.23 -10.71 M581.34 1 C589.05 -3.61, 596.71 -4.99, 607.49 -9.84" stroke="#c92a2a" stroke-width="4" fill="none"></path></g><g transform="translate(2421.8795572916665 1437.5845121264458) rotate(0 303.73468540170234 -5.04834499512333)"><path d="M580.76 -21.96 C587.75 -17.42, 593.06 -15.45, 608.23 -10.71 M580.98 -19.52 C588.73 -18.25, 596.49 -13.76, 607.49 -9.84" stroke="#c92a2a" stroke-width="4" fill="none"></path></g></g><g stroke-linecap="round"><g transform="translate(3052.4947916666665 1427.2329496264458) rotate(0 343.2144082903865 -272.81850851774226)"><path d="M-1.06 1.12 C113.4 -90.09, 572.83 -455.79, 687.48 -546.76 M0.59 0.67 C114.9 -90.46, 572.69 -454.53, 686.97 -545.7" stroke="#c92a2a" stroke-width="4" fill="none"></path></g><g transform="translate(3052.4947916666665 1427.2329496264458) rotate(0 343.2144082903865 -272.81850851774226)"><path d="M673.18 -518.74 C675.31 -528.82, 684.43 -538.09, 688.27 -546.08 M671.52 -520.05 C676.63 -528.96, 682.77 -537.74, 686.03 -545.55" stroke="#c92a2a" stroke-width="4" fill="none"></path></g><g transform="translate(3052.4947916666665 1427.2329496264458) rotate(0 343.2144082903865 -272.81850851774226)"><path d="M660.4 -534.8 C667.2 -538.98, 680.92 -542.46, 688.27 -546.08 M658.74 -536.1 C668.48 -539.2, 679.26 -542.15, 686.03 -545.55" stroke="#c92a2a" stroke-width="4" fill="none"></path></g></g><g stroke-linecap="round"><g transform="translate(3771.889322916667 884.6450590014457) rotate(0 164.13660346236543 -0.35628873109817505)"><path d="M-0.03 0.21 C55.04 0.24, 275.13 -0.82, 329.78 -0.92 M-1.5 -0.72 C53.55 -0.48, 274.03 -0.1, 329.32 0.13" stroke="#c92a2a" stroke-width="4" fill="none"></path></g><g transform="translate(3771.889322916667 884.6450590014457) rotate(0 164.13660346236543 -0.35628873109817505)"><path d="M301.46 11.87 C306.59 6.2, 314.34 6.06, 330.21 0.78 M301.89 9.83 C308.17 8.46, 313.76 6.47, 330.23 0.81" stroke="#c92a2a" stroke-width="4" fill="none"></path></g><g transform="translate(3771.889322916667 884.6450590014457) rotate(0 164.13660346236543 -0.35628873109817505)"><path d="M301.51 -8.65 C306.45 -9.27, 314.19 -4.37, 330.21 0.78 M301.95 -10.69 C308.39 -7.24, 313.98 -4.41, 330.23 0.81" stroke="#c92a2a" stroke-width="4" fill="none"></path></g></g><g stroke-linecap="round"><g transform="translate(4103.705729166667 907.2427152514457) rotate(0 -183.91358741450586 190.63046605563727)"><path d="M0.83 0.62 C-60.46 64.03, -306.11 316.94, -367.56 380.3 M-0.2 -0.1 C-61.68 63.44, -307.19 317.7, -368.65 381.36" stroke="#c92a2a" stroke-width="4" fill="none"></path></g><g transform="translate(4103.705729166667 907.2427152514457) rotate(0 -183.91358741450586 190.63046605563727)"><path d="M-355.42 353.5 C-361.79 361.58, -364.8 370.82, -366.78 380.6 M-355.49 354.26 C-359.65 358.95, -360.53 364.61, -368.96 382.32" stroke="#c92a2a" stroke-width="4" fill="none"></path></g><g transform="translate(4103.705729166667 907.2427152514457) rotate(0 -183.91358741450586 190.63046605563727)"><path d="M-340.66 367.75 C-351.62 371.49, -359.23 376.28, -366.78 380.6 M-340.72 368.51 C-347.77 370.26, -351.61 373.06, -368.96 382.32" stroke="#c92a2a" stroke-width="4" fill="none"></path></g></g><g stroke-linecap="round"><g transform="translate(3752.807291666667 1303.2388090014456) rotate(0 187.1867579728039 -3.3890234581054983)"><path d="M0.79 0.1 C63.43 -0.86, 312.07 -4.05, 374.62 -5.12 M-0.25 -0.89 C62.29 -2.26, 310.74 -6.15, 373.43 -6.88" stroke="#c92a2a" stroke-width="4" fill="none"></path></g><g transform="translate(3752.807291666667 1303.2388090014456) rotate(0 187.1867579728039 -3.3890234581054983)"><path d="M345.56 3 C352.1 3.2, 355.7 -2.47, 372.34 -7.62 M345.53 3.65 C354.17 1.18, 364.91 -2.95, 374.38 -5.94" stroke="#c92a2a" stroke-width="4" fill="none"></path></g><g transform="translate(3752.807291666667 1303.2388090014456) rotate(0 187.1867579728039 -3.3890234581054983)"><path d="M345.27 -17.52 C351.98 -13.21, 355.65 -14.78, 372.34 -7.62 M345.24 -16.87 C353.87 -12.26, 364.7 -9.32, 374.38 -5.94" stroke="#c92a2a" stroke-width="4" fill="none"></path></g></g><g stroke-linecap="round"><g transform="translate(1047.5143229166665 11.031777751445702) rotate(0 0.66018559750637 1060.067236646074)"><path d="M0.5 -1.03 C1 352.37, 1.67 1766.22, 2.02 2119.68 M-0.7 1.04 C-0.29 354.71, 0.53 1767.84, 1 2121.17" stroke="#c92a2a" stroke-width="4" fill="none"></path></g></g><g transform="translate(1282.9244791666665 45.50703816811239) rotate(0 121 22.5)"><text x="0" y="32" font-family="Virgil, Segoe UI Emoji" font-size="36px" fill="#000000" text-anchor="start" style="white-space: pre;" direction="ltr">HORIZONTAL</text></g><g transform="translate(651.7265624999999 45.50703816811239) rotate(0 92 22.5)"><text x="0" y="32" font-family="Virgil, Segoe UI Emoji" font-size="36px" fill="#000000" text-anchor="start" style="white-space: pre;" direction="ltr">VERTICAL</text></g><g transform="translate(26.96840181272944 269.3770200898748) rotate(0 93.5 22.5)"><text x="0" y="32" font-family="Virgil, Segoe UI Emoji" font-size="36px" fill="#000000" text-anchor="start" style="white-space: pre;" direction="ltr">Home Page</text></g><g transform="translate(1273.5758236877296 262.1953794648748) rotate(0 93.5 22.5)"><text x="0" y="32" font-family="Virgil, Segoe UI Emoji" font-size="36px" fill="#000000" text-anchor="start" style="white-space: pre;" direction="ltr">Home Page</text></g><g transform="translate(2307.6383236877296 269.2266294648748) rotate(0 91 22.5)"><text x="0" y="32" font-family="Virgil, Segoe UI Emoji" font-size="36px" fill="#000000" text-anchor="start" style="white-space: pre;" direction="ltr">Shop Page</text></g><g transform="translate(3398.3023861877296 492.7813169648748) rotate(0 102.5 22.5)"><text x="0" y="32" font-family="Virgil, Segoe UI Emoji" font-size="36px" fill="#000000" text-anchor="start" style="white-space: pre;" direction="ltr">Users Page</text></g></svg>