<svg xmlns="http://www.w3.org/2000/svg" width="954" height="380" viewBox="0 0 954 380">
    <g fill="none" fill-rule="evenodd">
        <path fill="#FFF" d="M0 380h954V0H0z"/>
        <path fill="#F9DEE0" d="M810.26 178.5H690v-11.362c0-10.109 8.195-18.303 18.303-18.303h83.655c10.108 0 18.302 8.194 18.302 18.303V178.5z"/>
        <path fill="#D8262C" fill-rule="nonzero" d="M809 285V166.803c0-9.28-7.522-16.803-16.803-16.803h-83.394c-9.28 0-16.803 7.522-16.803 16.803V285h117zm-120 3V166.803c0-10.937 8.866-19.803 19.803-19.803h83.394c10.937 0 19.803 8.866 19.803 19.803V288H689z"/>
        <path fill="#F9DEE0" d="M262.243 148.5h-120.26v-11.362c0-10.109 8.195-18.303 18.302-18.303h83.656c10.108 0 18.302 8.194 18.302 18.303V148.5z"/>
        <path fill="#D8262C" fill-rule="nonzero" d="M261 285V166.898c0-5.401-2.255-17.63-5.284-27.559C252.072 127.393 247.76 120 244.237 120h-83.434c-9.28 0-16.803 7.522-16.803 16.803V285h117zm-120 3V136.803c0-10.937 8.866-19.803 19.803-19.803h83.434c5.549 0 10.27 8.095 14.348 21.464 3.109 10.19 5.415 22.695 5.415 28.434V288H141z"/>
        <path fill="#FFF" d="M228.07 296.778V48.068c0-9.839 7.976-17.814 17.812-17.814h453.612c9.11 0 16.496 7.386 16.496 16.497v240.027"/>
        <path fill="#F9DEE0" d="M715.99 73.685H228.07V47.49c0-9.165 7.431-16.596 16.596-16.596h455.69c8.634 0 15.634 7 15.634 15.636v27.156z"/>
        <path fill="#FFF" d="M444.191 75.135l4.826-9.15s-8.486-.404-12.002 1.472l-.354-8.018s-11.832 6.235-12.747 17.023l20.277-1.327z"/>
        <path fill="#D8262C" d="M251.688 62.075a8.785 8.785 0 0 1-8.785-8.785 8.785 8.785 0 0 1 8.785-8.786 8.786 8.786 0 0 1 0 17.571M277.484 62.075a8.786 8.786 0 1 1 0-17.571 8.786 8.786 0 0 1 0 17.571M303.28 62.075a8.786 8.786 0 1 1 0-17.571 8.786 8.786 0 0 1 0 17.571"/>
        <path fill="#D8262C" fill-rule="nonzero" d="M230 297h-3V48.313C227 37.648 235.647 29 246.312 29h453.691C709.943 29 718 37.058 718 46.997V287h-3V46.997C715 38.714 708.286 32 700.003 32H246.312C237.304 32 230 39.305 230 48.313V297z"/>
        <path fill="#FFF" d="M490.15 84.03s-5.518-4.78-7.959-7.563c-2.44-2.782-1.392-6.59 0-8.55 1.392-1.96 31.251-43.62 31.251-43.62l-1.84-13.213-12.269 4.833-21.81 47.666-3.168 4s-6.884 1.52-6.828 7.551l3.641 2.125 18.982 6.77z"/>
        <path fill="#D8262C" fill-rule="nonzero" d="M498.221 14.743l14.603-5.753 2.187 15.694-.35.487-1.344 1.877a285668.731 285668.731 0 0 0-14.306 19.961 24065.357 24065.357 0 0 0-15.597 21.777c-1.44 2.028-1.682 4.883-.095 6.692.633.722 1.537 1.644 2.65 2.714a150.967 150.967 0 0 0 4.779 4.368l.384.335 6.04 5.231-26.64-9.5L466.036 76l-.008-.852c-.03-3.211 1.542-5.641 4.09-7.318 1.216-.8 2.42-1.3 3.376-1.574l2.742-3.462 21.986-48.05zm-17.157 62.714c-2.633-3.001-2.264-7.355-.096-10.408.599-.843 6.357-8.882 15.6-21.78a256021.987 256021.987 0 0 1 14.31-19.969l.996-1.39-1.495-10.732-9.933 3.913-21.634 47.281-3.612 4.561-.521.115a7.616 7.616 0 0 0-.874.273 9.963 9.963 0 0 0-2.04 1.016c-1.521 1.001-2.472 2.288-2.69 3.964l2.729 1.592 11.839 4.223c-1.058-1.024-1.93-1.92-2.58-2.66z"/>
        <path fill="#F9DEE0" d="M877.69 286.778C883.94 297.5 819 314 723.94 314c-96.385 0-106.817 50.333-226.94 50.333-121.332 0-85.332-50.333-196.94-50.333C196 314 147 333.667 116.31 286.778"/>
        <path fill="#F9DEE0" d="M584.168 296.094c-.434-2.322-.265-4.858 1.331-7.587 2.053-3.514 5.624-6.007 9.691-6.135a11.534 11.534 0 0 1 5.282 1.103c1.906-7.792 8.93-13.576 17.31-13.576 7.203 0 13.405 4.275 16.215 10.424a13.387 13.387 0 0 1 7.592-1.526c6.172.567 11.265 5.48 12.03 11.63a13.494 13.494 0 0 1-.486 5.667h-68.965z"/>
        <path fill="#D8262C" fill-rule="nonzero" d="M489 285v3H90v-3zM891 285v3H663v-3z"/>
        <path fill="#F9DEE0" d="M429.72 135.66s-4.27 20.284-27.781 23.793l4.566-11.897 9.325-18.732 2.337-6.24 9.416-1.084 2.138 14.16zM505.082 288.3l-10.242 33.256-11.991-2.12 5.688-34.027-10.244-16.043s-14.524-13.366-15.408-23.7l.859-7.645 1.46-10.056 4.225 1.365 12.479 8.099s-6.525 14.435 4.45 24.337c10.975 9.9 18.724 26.535 18.724 26.535"/>
        <path fill="#F2BCC1" d="M494 323.167l-5 13.5s-10 1.74-13.833 1.537c-3.834-.204-5.834-1.704-5.834-1.704l13.516-17.063 11.151 3.73z"/>
        <path fill="#D8262C" fill-rule="nonzero" d="M494.674 317.283c.476-1.459.964-2.976 1.463-4.546a950.686 950.686 0 0 0 5.231-17.085 1075.886 1075.886 0 0 0 2.272-7.764l2.884.826a336.17 336.17 0 0 1-.62 2.145c-.496 1.704-1.053 3.602-1.66 5.647a953.595 953.595 0 0 1-5.248 17.14c-.5 1.576-.991 3.1-1.47 4.567-3.08 9.438-5.518 16.035-7.148 19.008l-.34.622-.698.131c-11.726 2.204-17.774 2.204-20.085.613-.897-.617-1.258-1.473-1.157-2.26a8.42 8.42 0 0 1 .108-.492l13.226-17.02 5.54-33.137-.2-.354c-.362-.647-.772-1.367-1.221-2.144a174.566 174.566 0 0 0-3.938-6.499 106.56 106.56 0 0 0-1.817-2.755c-1.622-2.373-3.027-4.17-4.118-5.229-7.772-7.543-12.028-13.85-13.587-19.58-1.201-4.413-.893-7.56.598-12.948.574-2.077.693-2.526.876-3.422.46-2.246.442-4.024-.17-5.879l2.85-.939c.793 2.406.816 4.7.26 7.42-.204.99-.329 1.465-.925 3.62-1.36 4.912-1.621 7.588-.595 11.36 1.399 5.14 5.364 11.015 12.783 18.216 1.267 1.23 2.778 3.162 4.504 5.688.604.883 1.228 1.83 1.87 2.833a177.486 177.486 0 0 1 4.006 6.612 193.428 193.428 0 0 1 1.704 3.01l.25.455-5.836 34.915-12.684 16.322c.676.192 1.778.323 3.367.323 3.017 0 7.335-.482 13.122-1.545 1.515-3.034 3.796-9.271 6.603-17.875z"/>
        <path fill="#F9DEE0" d="M336.865 172.333l-2.888-10.075 20.595-9.212 26.571 9.284 20.795-2.877 2.531-8.046-37.82-10.146s-6.335-3.183-12.929 0c-6.593 3.181-23.895 11.321-25.59 12.351-1.698 1.031-3.174 1.66-3.577 5.283-.4 3.622-1.628 14.689-1.628 14.689s1.972 2.749 13.94-1.251"/>
        <path fill="#D8262C" fill-rule="nonzero" d="M403.965 115.464c.327.124 7.904 3.12 9.809 3.76 3.147 1.054 5.56 1.486 7.84 1.323 2.954-.212 5.79-1.464 8.923-4.083l1.925 2.301c-3.593 3.004-7.014 4.515-10.635 4.774-2.737.196-5.516-.301-9.007-1.471-1.994-.669-9.655-3.7-9.914-3.797-8.502-3.209-15.808-4.878-24.972-5.094l-.513-.012-.398-.324c-1.186-.965-8.716-6.688-9.923-7.965-1.674-1.771-2.432-3.594-2.717-6.49l-.024-.235.051-.232c.097-.441.302-1.168.642-2.086a21.253 21.253 0 0 1 2.263-4.468c2.069-3.087 4.837-5.31 8.39-6.24 3.133-.818 11.208-2.572 22.831-4.993l1.276-.266a4337.616 4337.616 0 0 1 24.847-5.085l.571-.115.592 2.941-.57.115a3473.395 3473.395 0 0 0-7.367 1.494 4334.756 4334.756 0 0 0-18.737 3.853c-11.56 2.408-19.623 4.16-22.684 4.959-2.775.725-4.967 2.487-6.657 5.008a18.29 18.29 0 0 0-1.941 3.836 17.145 17.145 0 0 0-.471 1.472c.235 2.104.74 3.259 1.885 4.471.934.988 7.202 5.773 9.232 7.377 9.304.273 16.815 2.012 25.453 5.272zM484.414 147.566l-1.6 2.538a52.315 52.315 0 0 1-1.465-.95c-.413-.281-2.027-1.359-2.245-1.505a91.415 91.415 0 0 1-2.674-1.858c-2.208-1.6-4.182-3.225-6.06-5.05-8.959-8.708-14.2-20.555-14.435-37.345-.185-13.277-3.652-21.312-9.233-25.23a14 14 0 0 0-6.284-2.453c-1.46-.188-2.841-.101-3.233.045l-1.048-2.812c2.546-.948 8.002-.245 12.29 2.765 6.45 4.529 10.31 13.476 10.508 27.643.224 15.983 5.13 27.075 13.526 35.236 1.766 1.716 3.631 3.251 5.73 4.771.804.583 1.61 1.14 2.587 1.799.208.14 1.832 1.223 2.257 1.512.346.235.803.531 1.379.894z"/>
        <path fill="#FFF" d="M523.535 277.147l.874 15.969-7.787 34.37-11.337-1.736-.51-38.865-3.742-6.14z"/>
        <path fill="#F2BCC1" d="M557.713 222.265c12.729 2.806 18.537 15.485 16.387 36.869-3.096 30.788 22.662 34.866 3.25 61.92-36.85-15.554-28.252-44.487-23.062-61.821 5.192-17.333 1.935-27.126 1.935-27.126"/>
        <path fill="#D8262C" fill-rule="nonzero" d="M479.545 237.67a1171.826 1171.826 0 0 0-16.712-10.752l-1.432-.899c-8.482-5.314-14.71-8.973-17.604-10.25-4.484-1.978-8.611-4.053-12.396-6.213-11.324-6.466-19.176-13.425-24.162-20.421-1.766-2.477-3.045-4.79-3.915-6.882-.536-1.288-.818-2.237-.925-2.79l2.946-.569c.279.993.48 1.56.749 2.207.784 1.884 1.954 4 3.588 6.293 4.727 6.633 12.251 13.302 23.207 19.556 3.693 2.11 7.728 4.137 12.119 6.074 3.08 1.36 9.362 5.05 17.986 10.453l1.437.903c4.1 2.58 8.41 5.345 12.664 8.11a1174.955 1174.955 0 0 1 6.548 4.286l-.288 1.05c-2.513 9.15-2.088 13.96 1.165 18.991 1.21 1.871 1.828 2.633 5.998 7.565a135.041 135.041 0 0 1 4.832 6.094c2.567 3.419 5.12 7.077 7.546 10.734a240.976 240.976 0 0 1 2.93 4.53c.073.115.217.346.431.692a759.146 759.146 0 0 1 .141 3.763c.094 2.613.188 5.404.276 8.258.085 2.759.16 5.434.22 7.972.269 11.095.264 17.993-.153 19.684-.35 1.424-2.416 3.939-6.066 7.79-.308.326-.625.658-.95.995a243.718 243.718 0 0 1-5.805 5.816c2.319 1.794 7.898 1.835 18.005-1.398 1.112-3.638 2.607-9.445 4.386-16.928.314-1.322.635-2.689.963-4.097a1392.66 1392.66 0 0 0 3.946-17.52 1584.174 1584.174 0 0 0 1.6-7.391c.022-.101-.47-9.717-1.478-28.848l.836-.452c18.505-10.025 29.207-21.434 32.755-33.512 3.042-10.356.693-21.005-6.08-30.706-7.46-10.683-23.55-23.203-45.865-37.35l1.606-2.534c22.653 14.362 38.952 27.043 46.719 38.167 7.264 10.404 9.816 21.974 6.498 33.268-3.743 12.744-14.724 24.578-33.37 34.848l1.477 26.975a532.382 532.382 0 0 1-.512 2.391c-.375 1.746-.797 3.691-1.256 5.786-1.31 5.985-2.654 11.97-3.954 17.558a897.011 897.011 0 0 1-.967 4.111c-1.92 8.077-3.511 14.22-4.673 17.876l-.233.731-.729.24c-11.421 3.75-18.159 3.75-21.45 1.206a4.895 4.895 0 0 1-1.277-1.437 3.138 3.138 0 0 1-.357-.888l-.17-.815.602-.576.566-.545a262.143 262.143 0 0 0 6.056-6.057c.32-.332.631-.658.933-.977 1.526-1.61 2.792-3.017 3.73-4.158.957-1.166 1.54-2.039 1.602-2.287.315-1.279.32-8.426.067-18.893-.061-2.532-.136-5.2-.22-7.953a1590.365 1590.365 0 0 0-.366-10.704c-.2-.787-.407-1.113-.642-1.481a237.98 237.98 0 0 0-2.273-3.492c-2.395-3.612-4.916-7.224-7.444-10.59a132.095 132.095 0 0 0-4.723-5.959c-4.284-5.065-4.914-5.843-6.227-7.873-3.625-5.606-4.222-11.087-1.821-20.359l-.635-.416zM339.397 173.071l-1.442.487-.323.106a65.9 65.9 0 0 1-3.774 1.086c-1.256.32-2.479.59-3.64.794-4.036.71-6.859.613-8.36-.906l-.503-.508.08-.711 1.721-15.533a6.803 6.803 0 0 1 3.805-5.376l27.238-13.146a11.801 11.801 0 0 1 8.115-.79l41.938 10.975-.76 2.902-41.937-10.974a8.8 8.8 0 0 0-6.052.589l-27.238 13.146a3.803 3.803 0 0 0-2.127 3.005l-1.616 14.577c.925.257 2.784.216 5.178-.205 1.08-.19 2.23-.444 3.417-.746.84-.215 1.656-.442 2.425-.672l-3.44-9.717 22.402-10.02 27.134 9.48-.99 2.832-26.008-9.087-18.787 8.403 3.544 10.009zM431.433 65.01c-3.604 3.38-5.819 7.5-6.02 12.424l-2.998-.122c.237-5.788 2.83-10.61 6.966-14.49a28.38 28.38 0 0 1 4.725-3.574c.975-.589 1.745-.98 2.209-1.184l2.14-.938-.339 19.9-3-.052.256-14.983a25.356 25.356 0 0 0-3.939 3.019z"/>
        <path fill="#D8262C" fill-rule="nonzero" d="M446.799 67.39c-2.86-.001-6.013.498-9.017 1.775l-.166.071-1.2-2.75.192-.082c4.185-1.78 8.535-2.223 12.281-1.934.355.027.613.055.762.076l2.316.322-6.568 10.29-2.529-1.613 3.929-6.156zM400.625 158.132c.407-2.273 1.138-4.464 2.227-6.82 1.045-2.26 6.936-12.44 8.59-15.822.127-.258.252-.517.375-.776 2.712-5.682 3.994-10.375 4.213-14.128l2.995.174c-.242 4.157-1.628 9.226-4.5 15.246-.128.268-.257.535-.388.802-1.72 3.52-7.59 13.66-8.561 15.762-1.148 2.484-1.842 4.715-2.15 7.077l-.147 1.122-1.12.167-42.264 6.307c-5.05.49-8.122 5.793-6.031 10.414 1.201 2.655 2.508 5.716 3.952 9.239a567.391 567.391 0 0 1 1.932 4.778c.852 2.132 1.72 4.333 2.809 7.113.2.513 2.07 5.297 2.58 6.596 1.927 4.91 3.081 7.747 3.917 9.569 1.213 2.644 2.772 5.233 4.598 7.735a57.11 57.11 0 0 0 5.125 6.074 48.33 48.33 0 0 0 1.625 1.6c1.123-.779 2.545-2.946 3.974-5.987a63.31 63.31 0 0 0 1.99-4.78c.13-.35.252-.683.364-.999l-9.812-5.427-9.86-32.017 48.483-4.581.282 2.986-44.814 4.235 8.42 27.337 10.936 6.05-.38 1.176c-.04.12-.112.337-.216.638-.171.498-.369 1.052-.59 1.648a66.234 66.234 0 0 1-2.088 5.01c-1.802 3.836-3.574 6.459-5.497 7.496a4.01 4.01 0 0 1-1.26.441l-.69.113-.53-.456c-.135-.116-.374-.33-.703-.637a50.991 50.991 0 0 1-1.786-1.757 60.085 60.085 0 0 1-5.397-6.395c-1.937-2.655-3.6-5.414-4.901-8.253-.868-1.892-2.034-4.757-3.983-9.723-.511-1.301-2.38-6.087-2.58-6.598-1.087-2.775-1.953-4.97-2.802-7.094a564.407 564.407 0 0 0-1.921-4.753c-1.432-3.492-2.725-6.521-3.91-9.14-2.939-6.495 1.379-13.949 8.398-14.628l41.096-6.134zM581.229 293.903a69.328 69.328 0 0 0-1.565-3.585c-.303-.654-1.497-3.18-1.776-3.78-4.594-9.871-6.33-17.113-5.28-27.554 2.07-20.601-3.318-32.631-15.218-35.255l.646-2.93c13.7 3.021 19.762 16.551 17.556 38.485-.987 9.822.63 16.563 5.016 25.988.274.59 1.469 3.118 1.777 3.783a72.124 72.124 0 0 1 1.631 3.739c3.842 9.659 2.806 17.633-5.446 29.135l-.699.973-1.103-.465c-17.214-7.266-26.045-17.898-28.195-31.39-1.528-9.584-.092-17.649 4.278-32.245 3.004-10.027 3.437-18.164 2.398-24.216a20.467 20.467 0 0 0-.323-1.548 7.775 7.775 0 0 0-.126-.458l2.846-.947c.15.45.357 1.269.56 2.445 1.116 6.502.658 15.107-2.481 25.585-4.243 14.171-5.623 21.92-4.19 30.912 1.937 12.151 9.742 21.772 25.292 28.62 7.017-10.123 7.755-16.862 4.402-25.292z"/>
        <path fill="#F2BCC1" d="M515.47 56.313c-4.296-13.464 16.244-28.832 35.026-8.67 8.912 9.568 5.576 23.24.512 35.296-4.337 10.326-13.566 11.246-25.226 3.98l3.917-9.912a4.387 4.387 0 1 0 .955-7.756s-5.94-7.206-2.517-19.125a6.142 6.142 0 0 0-8.627 1.02l-4.04 5.167zM489.552 122.74l7.502 2.746 6.969 1.123 10.273 1.656 10.698-10.289.59-3.403.933 1.603 4.885-1.882.282.175 1.817-4.668.216-11.862-7.615-7.623-1.504-.828-6.314 6.976-10.027 5.002-9.226-4.37-.585-3.745-4.474 5.541-3.965 14.716z"/>
        <path fill="#FFF" d="M529.688 77.002l-6.063 14.369s-13.163 15.26-22.949 7.335c-10.82-8.763 15.175-11.033 15.175-11.033l1.517-10.407-4.087-3.222a9.294 9.294 0 0 1-1.544-13.054l7.764-9.848a6.142 6.142 0 0 1 8.626-1.022c-3.421 11.92 2.517 19.126 2.517 19.126a4.388 4.388 0 1 1-.955 7.756"/>
        <path fill="#D8262C" fill-rule="nonzero" d="M529.017 74.735l1.513 1.025a2.886 2.886 0 0 0 3.402-4.66 2.881 2.881 0 0 0-2.777-.444l-.996.361-.673-.817c-.53-.643-1.274-1.807-2.004-3.46-1.985-4.494-2.604-9.867-1.087-15.952a4.644 4.644 0 0 0-5.717 1.283l-7.764 9.848a7.795 7.795 0 0 0 1.296 10.947l4.767 3.759-1.812 12.439-1.183.103a69.025 69.025 0 0 0-2.707.32c-2.042.284-4.082.652-5.976 1.11-3.46.837-6.017 1.888-7.175 3.036-1.018 1.01-.815 2.036 1.497 3.907 1.628 1.319 3.4 1.937 5.34 1.948 3.25.018 6.885-1.658 10.56-4.496a38.987 38.987 0 0 0 4.63-4.226l.188-.206 6.678-15.825zm1.451 4.278l-5.553 13.159-.155.179c-.075.088-.212.241-.407.451a41.957 41.957 0 0 1-5 4.564c-4.153 3.21-8.35 5.145-12.408 5.122-2.613-.015-5.048-.863-7.213-2.616-3.566-2.889-4.172-5.938-1.72-8.369 1.66-1.647 4.62-2.864 8.582-3.822a64.924 64.924 0 0 1 6.268-1.165 73.577 73.577 0 0 1 1.673-.213l1.223-8.396-3.405-2.685c-4.682-3.691-5.486-10.479-1.794-15.16l7.763-9.849a7.642 7.642 0 0 1 10.733-1.271l.791.624-.278.968c-1.67 5.823-1.172 10.85.658 14.994.34.77.701 1.444 1.06 2.016a5.888 5.888 0 1 1-.818 11.468z"/>
        <path fill="#D8262C" fill-rule="nonzero" d="M501.43 125.669l-.505 2.957-13.838-2.36.303-1.514c.324-1.615.623-3.34.945-5.403a320.44 320.44 0 0 0 .52-3.455l.17-1.146c1.303-8.81 2.168-12.765 3.949-16.227 2.077-4.037 5.33-6.469 10.276-8.474.655-.265 1.33-.522 2.17-.827.316-.116 1.694-.61 2.051-.742l.275-.1 1.04 2.814-.285.104c-.367.134-1.747.63-2.055.743-.808.294-1.452.538-2.07.789-4.341 1.76-7.044 3.78-8.735 7.066-1.57 3.05-2.4 6.844-3.648 15.293a3079.554 3079.554 0 0 0-.34 2.299c-.131.88-.243 1.618-.354 2.326a148.95 148.95 0 0 1-.676 4.013l10.807 1.844z"/>
        <path fill="#FFF" d="M531.56 115.327c-2.117 7.02-8.131 12.36-8.131 12.36l-14.781-.86-24.141-3.567s-10.224 7.434-16.07-.85c0 0 .488-3.052 6.94-4.013l-.481-4.72s5.184 2.071 6.359 4.108l34.336.771 1.987-4.337 13.982 1.108z"/>
        <path fill="#D8262C" fill-rule="nonzero" d="M530.699 95.908c-.683-.794-1.512-1.614-2.454-2.442a42.52 42.52 0 0 0-3.282-2.596 42.249 42.249 0 0 0-1.476-1.01l1.61-2.532a45.235 45.235 0 0 1 1.614 1.104 45.466 45.466 0 0 1 3.516 2.781c1.04.915 1.964 1.83 2.746 2.739 2.158 2.508 2.702 6.54 2.138 11.734-.37 3.405-1.09 6.577-2.165 10.4l-.621 2.21-1.774-1.456c-1.147-.94-2.536-1.546-4.132-1.853-2.124-.408-4.45-.268-6.696.22-.459.1-.874.207-1.238.313a9.318 9.318 0 0 0-.416.129l-3.135 1.096 1.25-3.077c.113-.278.227-.566.343-.863a96.59 96.59 0 0 0 1.817-5.2l2.864.893a99.565 99.565 0 0 1-1.216 3.598c2.326-.416 4.71-.494 6.994-.055 1.294.25 2.504.66 3.61 1.246 2.113-8.134 2.595-14.482.103-17.379z"/>
        <path fill="#D8262C" fill-rule="nonzero" d="M516.91 55.868l-2.859.912c-2.357-7.388 1.936-15.427 9.682-18.784 8.55-3.707 18.903-.985 27.851 8.62 8.235 8.841 7.543 20.837.797 36.9-4.66 11.094-14.784 12.534-27.403 4.672l1.587-2.546c11.215 6.987 19.212 5.85 23.05-3.289 6.335-15.081 6.963-25.974-.226-33.692-8.12-8.718-17.138-11.088-24.463-7.913-6.402 2.775-9.879 9.285-8.016 15.12zM512.062 86.633l.462 2.964-25.274 3.946-18.087-7.874-.216-.62c-.02-.059-.062-.174-.121-.337a56.5 56.5 0 0 0-1.49-3.682c-.418-.923-.82-1.713-1.189-2.322-.334-.552-.623-.917-.777-1.03l1.772-2.42c.549.401 1.048 1.032 1.57 1.895.44.726.894 1.616 1.357 2.64a54.394 54.394 0 0 1 1.485 3.645l16.094 7.007 24.414-3.812z"/>
        <path fill="#D8262C" fill-rule="nonzero" d="M463.593 87.541c1.1.671 2.288 1.285 3.477 1.827a33.953 33.953 0 0 0 1.561.664l.14.052.126.08a89.93 89.93 0 0 1 2.652 1.74c.516.349 2.353 1.604 2.702 1.84 6.342 4.307 10.127 6.177 14.128 6.404.806.046 1.499.101 2.086.164 1.179.127 1.83.269 2.167.419l-1.219 2.741c.003.001-.373-.08-1.269-.177a39.023 39.023 0 0 0-1.936-.152c-4.724-.268-8.86-2.311-15.643-6.916-.354-.24-2.188-1.494-2.697-1.839a89.692 89.692 0 0 0-2.444-1.607 36.939 36.939 0 0 1-1.598-.683 36.017 36.017 0 0 1-3.795-1.995c-4.84-2.952-7.319-6.27-5.408-9.929l.27-.517.55-.199c.208-.075.544-.175.985-.27 1.77-.384 3.666-.377 5.491.302a8.06 8.06 0 0 1 2.936 1.897l-2.13 2.113a5.062 5.062 0 0 0-1.851-1.198c-1.203-.447-2.536-.455-3.789-.187-.316 1.572 1.281 3.459 4.508 5.426zM482.41 126.503c-2.72 1.284-5.502 1.936-8.18 1.584-2.79-.366-5.212-1.817-7.076-4.46l-.352-.498.096-.603c.05-.305.185-.71.45-1.176.392-.69.988-1.356 1.814-1.952 1.402-1.012 3.356-1.746 5.938-2.13l.442 2.967c-2.131.317-3.636.882-4.624 1.595-.35.253-.608.504-.792.746 1.273 1.512 2.772 2.31 4.494 2.537 2.014.265 4.263-.263 6.51-1.323.658-.31 1.264-.643 1.802-.975.316-.194.533-.34.635-.415l.496-.36.606.09 24.236 3.584 13.959 2.982a66.582 66.582 0 0 0 3.708-5.74c1.228-2.14 2.242-4.217 2.968-6.156.199-.531.375-1.05.526-1.552l2.872.866a28.2 28.2 0 0 1-.588 1.737c-.789 2.108-1.872 4.326-3.177 6.6a69.548 69.548 0 0 1-4.092 6.296c-.186.254-.321.434-.396.532l-.577.75-.926-.197-14.81-3.167-23.562-3.482c-.598.388-1.414.855-2.4 1.32z"/>
        <path fill="#D8262C" fill-rule="nonzero" d="M516.156 113.949l2.728 1.249-2.397 5.235-36.168-.813-.422-.732a1.047 1.047 0 0 0-.025-.041c-.321-.502-1.223-1.198-2.48-1.915a27.097 27.097 0 0 0-2.146-1.09c-.44-.201-.779-.345-.964-.419l1.114-2.786c.06.025.167.068.312.13.237.1.5.216.784.346.81.37 1.622.777 2.386 1.213 1.34.764 2.39 1.523 3.09 2.33l32.613.733 1.575-3.44zM465.22 131.355l-2.287-1.94c2.381-2.806 5.703-4.238 9.99-3.87l-.256 2.988c-3.3-.282-5.683.745-7.446 2.822zM501.514 213.103c.945 2.01 1.292 3.615 1.317 4.613l.022.907-.793.44c-.147.082-.423.233-.81.445-.645.351-1.371.743-2.164 1.164a234.6 234.6 0 0 1-6.904 3.534c-.85.416-1.68.815-2.487 1.193-6.944 3.258-11.158 4.703-13.12 3.788l-.458-.214-.235-.448c-1.171-2.231-1.185-4.303-.166-6.222.725-1.364 1.685-2.351 3.726-4.098l.323-.276c2.338-1.998 3.23-2.992 3.6-4.24 1.36-4.597.354-8.76-4.309-21.703-1.606-4.459-2.508-7.167-3.292-10.072a60.258 60.258 0 0 1-.716-2.93c-2.159-9.953-.855-15.76 3.434-23.756.39-.727 2.996-4.367 3.3-4.82 1.429-2.135 2.387-3.953 2.877-5.631.654-2.243.394-4-.926-5.425l2.2-2.038c2.111 2.278 2.533 5.124 1.606 8.302-.592 2.032-1.68 4.093-3.264 6.46-.408.609-2.867 4.044-3.15 4.57-3.98 7.422-5.13 12.547-3.145 21.703.195.9.422 1.825.68 2.784.757 2.803 1.64 5.45 3.219 9.836 2.69 7.47 3.272 9.19 4.044 12.382 1.075 4.45 1.245 8.058.318 11.189-.596 2.015-1.734 3.283-4.527 5.67l-.322.275c-3.108 2.66-3.968 3.99-3.146 6.021 1.336-.095 5.253-1.513 10.175-3.823.79-.37 1.606-.762 2.442-1.172a231.659 231.659 0 0 0 6.815-3.488c.735-.39 1.412-.755 2.019-1.085a12.254 12.254 0 0 0-.898-2.558c-1.315-2.795-3.654-5.643-7.299-8.366l-.478-.357-.102-.588c-.664-3.816-.51-6.797.393-14.685 1.142-9.975 1.128-14.88-.79-20.656a27.448 27.448 0 0 0-.096-.282l-.364-1.055.906-.651.352-.253.997-.72a1261.896 1261.896 0 0 0 14.362-10.54l.957-.717a540.724 540.724 0 0 0 5.99-4.547c5.354-4.13 6.625-12.242 5.498-20.943l2.976-.386c1.254 9.683-.16 18.705-6.642 23.705a543.634 543.634 0 0 1-6.984 5.29c-3.447 2.575-7.139 5.291-10.83 7.98a1265.156 1265.156 0 0 1-4.034 2.925c1.857 5.993 1.825 11.214.683 21.192-.819 7.151-.995 10.071-.512 13.254 3.764 2.91 6.268 6.012 7.732 9.123z"/>
        <path fill="#F9DEE0" d="M466.388 75.072l-45.12 16.09 6.883 59.66L466.388 172l38.238-21.179 6.882-59.659z"/>
        <path fill="#FFF" d="M466.34 75.09l-45.071 16.072 6.882 59.659 38.189 21.153z"/>
        <path fill="#D8262C" fill-rule="nonzero" d="M466.388 73.48l46.746 16.67-7.107 61.61-39.64 21.955-39.638-21.955-7.107-61.61 46.746-16.67zm-43.493 18.695l6.657 57.708 36.836 20.403 36.836-20.403 6.657-57.708-43.493-15.51-43.493 15.51z"/>
        <path fill="#D8262C" d="M472.882 124.311h-13.008l6.504-15.647 6.504 15.647zm-6.504-31.869L444.11 142.37h8.302l4.477-11.17h18.899l4.477 11.17h8.302l-22.19-49.927z"/>
        <path fill="#D8262C" fill-rule="nonzero" d="M516.85 326.004l-.455 2.965-11.337-1.736.454-2.965zM482.44 320.88l.818-2.887 10.991 3.12-.819 2.886zM492.967 83.029l-1.793 2.405-8.415-6.276c-.497-.375-1.188-1.025-1.876-1.93-2.163-2.844-2.702-6.214-.522-9.683l2.54 1.597c-1.432 2.277-1.102 4.334.37 6.27.294.387.61.731.924 1.027.18.17.313.28.364.319l8.408 6.271zM500.22 17.18l-21.328 47.57-2.737-1.228 21.827-48.685 15.16-5.973L515 24.699l-31.343 43.73-2.439-1.747 30.667-42.787-1.27-10.812zM475.761 66.636l-1.745 2.44c-1.438-1.028-5.573 2.754-5.013 5.786l-2.95.545c-.998-5.4 5.768-11.589 9.708-8.77z"/>
        <path fill="#D8262C" fill-rule="nonzero" d="M486.734 68.718l-1.714 2.462-12.275-8.544 1.714-2.462z"/>
        <path fill="#F9DEE0" d="M676.857 179.094c0 13.255-10.745 24-24 24s-24-10.745-24-24c0-13.254 10.745-24 24-24s24 10.746 24 24"/>
        <path fill="#F9DEE0" d="M700.857 202.094c0 14.912-12.088 27-27 27-14.91 0-27-12.088-27-27 0-14.911 12.09-27 27-27 14.912 0 27 12.089 27 27"/>
        <path fill="#F9DEE0" d="M659.857 202.094c0 14.912-12.088 27-27 27-14.91 0-27-12.088-27-27 0-14.911 12.09-27 27-27 14.912 0 27 12.089 27 27"/>
        <path fill="#F9DEE0" d="M685.857 229.594c0 9.665-7.835 17.5-17.5 17.5s-17.5-7.835-17.5-17.5c0-9.664 7.835-17.5 17.5-17.5s17.5 7.836 17.5 17.5"/>
        <path fill="#F9DEE0" d="M655.857 229.594c0 9.665-7.835 17.5-17.5 17.5s-17.5-7.835-17.5-17.5c0-9.664 7.835-17.5 17.5-17.5s17.5 7.836 17.5 17.5"/>
        <path fill="#D8262C" fill-rule="nonzero" d="M655 296h-3v-77.007l1.788.35c.031.006.127.02.28.037 2.141.231 4.71-.204 7.161-1.852 1.527-1.026 2.889-2.472 4.043-4.405l2.576 1.538c-1.38 2.31-3.048 4.082-4.945 5.357-2.657 1.787-5.42 2.45-7.903 2.42V296z"/>
        <path fill="#D8262C" fill-rule="nonzero" d="M652.08 228.802l2.447 1.734c-.317.448-.892 1.039-1.751 1.61-3.264 2.171-7.791 2.171-13.422-1.189l1.537-2.576c4.662 2.782 7.946 2.782 10.223 1.267.526-.35.848-.68.966-.846zM655 221h-3v-16h3zM654.804 296.437h-3c0-.387.043-1.009.17-1.792.21-1.3.589-2.601 1.186-3.83 1.747-3.602 4.967-5.813 9.787-5.813v3c-3.618 0-5.823 1.514-7.088 4.122-.458.943-.757 1.97-.924 3-.058.36-.096.694-.116.99a5.52 5.52 0 0 0-.015.323z"/>
        <path fill="#D8262C" fill-rule="nonzero" d="M654.74 288.854l-2.872.868a7.24 7.24 0 0 0-.125-.359 16.777 16.777 0 0 0-2.42-4.338c-1.618-2.081-3.622-3.563-6.055-4.223l.785-2.896c3.119.846 5.647 2.717 7.638 5.278a19.745 19.745 0 0 1 2.332 3.857c.367.796.6 1.427.717 1.813z"/>
        <path fill="#F9DEE0" d="M698.548 133.548a23.75 23.75 0 0 0 .42-4.378c0-13.103-10.621-23.726-23.725-23.726-3.607 0-7.012.829-10.073 2.268-3.901-15.953-18.284-27.795-35.44-27.795-14.746 0-27.441 8.754-33.196 21.344a27.312 27.312 0 0 0-12.95-3.246c-15.155 0-27.44 12.286-27.44 27.44 0 2.818.425 5.534 1.214 8.093h141.19zM299.063 231.91a23.75 23.75 0 0 0 .42-4.378c0-13.103-10.621-23.726-23.726-23.726-3.607 0-7.012.828-10.072 2.268-3.901-15.953-18.285-27.796-35.44-27.796-14.746 0-27.442 8.754-33.197 21.345a27.312 27.312 0 0 0-12.95-3.246c-15.155 0-27.44 12.285-27.44 27.44 0 2.818.426 5.534 1.215 8.093h141.19z"/>
        <path fill="#D8262C" d="M166.494 135.25a4.994 4.994 0 1 1-9.988 0 4.994 4.994 0 0 1 9.988 0M179.994 135.25a4.994 4.994 0 1 1-9.988 0 4.994 4.994 0 0 1 9.988 0M193.494 135.25a4.994 4.994 0 1 1-9.988 0 4.994 4.994 0 0 1 9.988 0"/>
    </g>
</svg>
