<svg width="954" height="380" viewBox="0 0 954 380" fill="none" xmlns="http://www.w3.org/2000/svg">
<path fill-rule="evenodd" clip-rule="evenodd" d="M885.735 304.573C887.678 315.012 881.584 328.599 780.413 343.826C467.902 390.859 343.251 332.528 263.361 332.528C151.239 332.528 98.4428 352.726 65.3768 304.573" fill="#F9DEE0"/>
<path fill-rule="evenodd" clip-rule="evenodd" d="M862.235 92.9072C862.417 91.983 862.522 91.0323 862.522 90.0586C862.522 81.5317 855.271 74.6197 846.324 74.6197C843.862 74.6197 841.537 75.1585 839.448 76.0956C836.784 65.7142 826.965 58.0083 815.253 58.0083C805.185 58.0083 796.518 63.7049 792.589 71.8973C789.956 70.551 786.946 69.7856 783.748 69.7856C773.402 69.7856 765.014 77.7798 765.014 87.6408C765.014 89.4743 765.305 91.2427 765.842 92.9072H862.235Z" fill="#F9DEE0"/>
<path fill-rule="evenodd" clip-rule="evenodd" d="M162.094 189.702C162.274 188.778 162.38 187.828 162.38 186.853C162.38 178.326 155.129 171.414 146.182 171.414C143.72 171.414 141.395 171.954 139.305 172.891C136.642 162.51 126.823 154.804 115.111 154.804C105.042 154.804 96.375 160.5 92.4473 168.693C89.8138 167.346 86.8037 166.581 83.6057 166.581C73.2591 166.581 64.871 174.575 64.871 184.436C64.871 186.269 65.1629 188.037 65.7004 189.702H162.094Z" fill="#F9DEE0"/>
<path d="M803.445 194.356V204.594" stroke="#D8262C" stroke-width="3"/>
<path d="M798.074 199.475H808.815" stroke="#D8262C" stroke-width="3"/>
<path d="M669.666 42.6484V52.886" stroke="#D8262C" stroke-width="3"/>
<path d="M664.295 47.767H675.037" stroke="#D8262C" stroke-width="3"/>
<path d="M890.352 109.66V119.898" stroke="#D8262C" stroke-width="3"/>
<path d="M884.982 114.779H895.723" stroke="#D8262C" stroke-width="3"/>
<path fill-rule="evenodd" clip-rule="evenodd" d="M734.767 238.1C734.343 235.938 734.508 233.577 736.065 231.038C738.071 227.768 741.559 225.447 745.53 225.329C747.382 225.274 749.128 225.655 750.687 226.354C752.548 219.102 759.408 213.718 767.59 213.718C774.624 213.718 780.679 217.698 783.424 223.422C785.6 222.309 788.144 221.765 790.838 222C796.865 222.529 801.837 227.101 802.585 232.825C802.828 234.677 802.64 236.46 802.111 238.1H734.767Z" fill="#F9DEE0"/>
<path d="M78.8905 60.332V70.5703" stroke="#D8262C" stroke-width="3"/>
<path d="M73.5204 65.4511H84.2614" stroke="#D8262C" stroke-width="3"/>
<path fill-rule="evenodd" clip-rule="evenodd" d="M511.963 282.774L132.269 282.873L113.997 53.4712C113.382 45.7517 119.788 39.1655 127.91 39.1655H476.984C484.281 39.1655 490.345 44.5235 490.898 51.4572L511.963 282.774Z" fill="#F9DEE0"/>
<path fill-rule="evenodd" clip-rule="evenodd" d="M502.859 208.478H127.634L117.927 90.6343L494.386 91.0455L502.859 208.478Z" fill="white"/>
<path d="M508.546 251.595L511.475 283.24L132.27 282.873L113.884 52.0577C113.331 45.101 119.103 39.1655 126.423 39.1655H478.263C484.838 39.1655 490.303 43.9942 490.801 50.2432L496.629 123.415" stroke="#D8262C" stroke-width="3"/>
<path d="M497.036 128.517L506.207 240.867" stroke="#D8262C" stroke-width="3"/>
<path fill-rule="evenodd" clip-rule="evenodd" d="M317.194 304.574H143.678C137.378 304.574 132.269 299.705 132.269 293.7V282.874H317.194V304.574Z" fill="#F2BCC0"/>
<path fill-rule="evenodd" clip-rule="evenodd" d="M317.194 304.574H143.678C137.378 304.574 132.269 299.705 132.269 293.7V282.874H317.194V304.574Z" stroke="#D8262C" stroke-width="3"/>
<path fill-rule="evenodd" clip-rule="evenodd" d="M609.036 304.574H278.977C273.458 304.574 268.982 300.309 268.982 295.048V282.874H622.573V291.671C622.573 298.797 616.512 304.574 609.036 304.574Z" fill="white"/>
<path fill-rule="evenodd" clip-rule="evenodd" d="M609.036 304.574H278.977C273.458 304.574 268.982 300.309 268.982 295.048V282.874H622.573V291.671C622.573 298.797 616.512 304.574 609.036 304.574Z" stroke="#D8262C" stroke-width="3"/>
<path fill-rule="evenodd" clip-rule="evenodd" d="M434.443 79.6726H175.887C171.509 79.6726 167.817 76.5648 167.275 72.4241C166.748 68.3894 170.05 64.8262 174.316 64.8262H432.873C437.25 64.8262 440.942 67.934 441.484 72.0747C442.011 76.1095 438.709 79.6726 434.443 79.6726Z" fill="white"/>
<path fill-rule="evenodd" clip-rule="evenodd" d="M134.484 53.2714C134.484 56.1017 132.077 58.3959 129.108 58.3959C126.138 58.3959 123.731 56.1017 123.731 53.2714C123.731 50.4417 126.138 48.1475 129.108 48.1475C132.077 48.1475 134.484 50.4417 134.484 53.2714Z" fill="#F2BCC0"/>
<path fill-rule="evenodd" clip-rule="evenodd" d="M149.142 53.2714C149.142 56.1017 146.735 58.3959 143.765 58.3959C140.797 58.3959 138.389 56.1017 138.389 53.2714C138.389 50.4417 140.797 48.1475 143.765 48.1475C146.735 48.1475 149.142 50.4417 149.142 53.2714Z" fill="#F2BCC0"/>
<path fill-rule="evenodd" clip-rule="evenodd" d="M163.8 53.2714C163.8 56.1017 161.393 58.3959 158.423 58.3959C155.454 58.3959 153.047 56.1017 153.047 53.2714C153.047 50.4417 155.454 48.1475 158.423 48.1475C161.393 48.1475 163.8 50.4417 163.8 53.2714Z" fill="#F2BCC0"/>
<path d="M505.771 282.873C505.771 282.873 504.616 290.695 497.237 290.695H436.204C430.921 290.695 427.526 286.87 427.526 282.423" stroke="#D8262C" stroke-width="3"/>
<path fill-rule="evenodd" clip-rule="evenodd" d="M580.321 288.733C570.735 291.875 556.009 283.367 540.925 265.973C537.458 261.973 534.045 257.589 530.706 252.9C539.761 246.377 548.874 238.949 557.84 230.763C571.234 232.062 584.196 232.566 596.384 232.262C596.732 237.609 596.841 242.77 596.695 247.694C596.027 270.249 589.907 285.591 580.321 288.733ZM496.343 257.17C475.514 267.897 458.514 270.515 450.866 264.174C443.214 257.836 443.585 241.423 451.849 220.276C453.55 215.922 455.547 211.452 457.805 206.904C469.015 211.471 481.227 215.566 494.134 219.08C497.253 225.724 500.527 232.143 503.946 238.252C506.034 241.985 508.176 245.6 510.358 249.102C505.621 252.1 500.938 254.804 496.343 257.17ZM437.7 181.063C417.539 169.234 406.66 156.51 408.599 147.026C410.536 137.543 425.63 129.642 448.976 125.889C454.312 125.031 459.964 124.408 465.857 123.995C467.143 134.551 469.214 145.611 472.026 156.941C464.03 167.369 456.97 177.852 451.026 188.116C446.31 185.852 441.852 183.499 437.7 181.063ZM479.411 95.4784C480.078 72.9227 486.201 57.5802 495.786 54.4384C505.372 51.2966 520.098 59.8045 535.181 77.199C537.917 80.3544 540.616 83.7595 543.276 87.3505C533.683 94.1491 524.012 101.98 514.507 110.659C502.444 109.489 490.735 108.967 479.622 109.096C479.364 104.399 479.281 99.8409 479.411 95.4784ZM576.004 84.2514C596.832 73.5246 613.834 70.9067 621.48 77.2479C622.65 78.2169 623.631 79.4214 624.426 80.843C628.832 88.7164 627.498 103.232 620.499 121.145C618.797 125.499 616.799 129.968 614.542 134.517C604.313 130.35 593.261 126.569 581.596 123.27C576.136 111.727 570.182 100.927 563.892 91.141C567.978 88.616 572.026 86.3 576.004 84.2514ZM580.837 207.745C584.341 203.905 587.719 200.025 590.988 196.122C592.66 203.584 593.982 210.884 594.933 217.944C587.455 218.1 579.665 217.941 571.638 217.459C574.74 214.3 577.81 211.062 580.837 207.745ZM589.208 140.629C595.611 142.705 601.755 144.935 607.613 147.294C604.533 152.56 601.147 157.891 597.462 163.252C596.372 159.919 595.24 156.58 594.034 153.236C592.496 148.972 590.885 144.767 589.208 140.629ZM533.97 113.06C539.823 108.114 545.695 103.543 551.53 99.3783C554.034 103.304 556.488 107.389 558.873 111.65C560.111 113.864 561.325 116.136 562.526 118.432C557.583 117.313 552.571 116.271 547.492 115.327C542.964 114.487 538.453 113.733 533.97 113.06ZM491.511 133.677C488.96 136.471 486.484 139.29 484.057 142.119C482.747 135.734 481.708 129.488 480.941 123.422C487.33 123.374 493.938 123.556 500.709 123.964C497.607 127.122 494.538 130.36 491.511 133.677ZM486.646 201.899C478.981 199.513 471.652 196.913 464.734 194.128C468.415 187.834 472.547 181.445 477.085 175.027C478.622 179.98 480.275 184.954 482.072 189.935C483.532 193.98 485.062 197.967 486.646 201.899ZM538.376 228.361C533.135 232.791 527.877 236.923 522.645 240.731C519.328 235.348 516.12 229.652 513.038 223.701C516.938 224.549 520.873 225.356 524.854 226.095C529.382 226.935 533.892 227.689 538.376 228.361ZM527.735 212.006C519.997 210.57 512.426 208.906 505.061 207.06C501.947 200.031 499.013 192.753 496.312 185.267C493.26 176.808 490.606 168.381 488.349 160.085C492.917 154.38 497.758 148.699 502.871 143.098C508.439 136.997 514.147 131.181 519.925 125.679C528.032 126.63 536.284 127.869 544.612 129.416C553.528 131.071 562.235 133.015 570.643 135.209C573.908 142.516 576.977 150.098 579.794 157.904C582.262 164.743 584.459 171.558 586.409 178.303C581.154 185.027 575.495 191.729 569.476 198.324C563.908 204.424 558.2 210.24 552.421 215.744C544.314 214.792 536.061 213.552 527.735 212.006ZM634.646 160.359C648.047 168.221 657.346 176.478 661.508 183.917C663.607 187.669 664.399 191.215 663.749 194.396C661.811 203.878 646.716 211.78 623.371 215.533C619.103 216.219 614.623 216.747 609.992 217.148C608.491 205.649 606.071 193.575 602.791 181.231C609.781 171.878 615.994 162.504 621.321 153.307C626.036 155.571 630.495 157.923 634.646 160.359ZM611.749 248.097C611.906 242.774 611.784 237.199 611.41 231.432C616.411 231 621.255 230.429 625.876 229.686C656.548 224.756 675.248 213.198 678.53 197.139C681.809 181.083 669.03 163.68 642.542 148.136C638.067 145.511 633.272 142.978 628.205 140.544C630.631 135.655 632.777 130.847 634.611 126.155C645.467 98.3705 644.316 77.153 631.364 66.4186C618.415 55.6823 596.211 57.53 568.845 71.624C564.498 73.8632 560.08 76.3889 555.624 79.1473C552.725 75.2258 549.779 71.5045 546.787 68.0547C526.97 45.2011 507.119 35.5457 490.888 40.8663C474.657 46.1863 465.235 65.4374 464.357 95.074C464.218 99.7657 464.305 104.66 464.581 109.701C458.269 110.144 452.205 110.814 446.47 111.736C415.797 116.667 397.099 128.225 393.817 144.283C392.493 150.762 393.784 157.46 397.537 164.168C403.083 174.081 414.007 184.016 429.806 193.286C434.279 195.91 439.075 198.444 444.142 200.877C441.715 205.765 439.57 210.574 437.737 215.267C429.039 237.527 428.048 255.571 434.659 267.388C436.299 270.319 438.408 272.868 440.982 275.003C453.932 285.74 476.134 283.891 503.502 269.798C508.404 267.272 513.396 264.394 518.435 261.211C521.987 266.188 525.62 270.852 529.318 275.117C549.134 297.97 568.987 307.626 585.219 302.306C601.449 296.986 610.871 277.735 611.749 248.097Z" fill="#F2BCC0"/>
<path d="M580.321 288.733L579.853 287.308H579.853L580.321 288.733ZM540.925 265.973L539.792 266.956L539.792 266.956L540.925 265.973ZM530.706 252.9L529.829 251.683L528.618 252.555L529.484 253.77L530.706 252.9ZM557.84 230.763L557.985 229.27L557.322 229.205L556.829 229.655L557.84 230.763ZM596.384 232.262L597.881 232.164L597.788 230.726L596.347 230.762L596.384 232.262ZM596.695 247.694L598.195 247.738V247.738L596.695 247.694ZM496.343 257.17L495.657 255.836L495.657 255.836L496.343 257.17ZM450.866 264.174L451.823 263.019L451.823 263.019L450.866 264.174ZM451.849 220.276L453.246 220.822L453.246 220.822L451.849 220.276ZM457.805 206.904L458.371 205.515L457.08 204.989L456.461 206.237L457.805 206.904ZM494.134 219.08L495.492 218.443L495.197 217.815L494.528 217.633L494.134 219.08ZM503.946 238.252L505.255 237.52L505.255 237.519L503.946 238.252ZM510.358 249.102L511.16 250.369L512.419 249.572L511.631 248.308L510.358 249.102ZM437.7 181.063L438.459 179.77L438.459 179.769L437.7 181.063ZM408.599 147.026L410.069 147.327L410.069 147.326L408.599 147.026ZM448.976 125.889L449.214 127.37L449.214 127.37L448.976 125.889ZM465.857 123.995L467.346 123.814L467.173 122.4L465.752 122.499L465.857 123.995ZM472.026 156.941L473.217 157.853L473.656 157.28L473.482 156.579L472.026 156.941ZM451.026 188.116L450.376 189.468L451.628 190.069L452.324 188.867L451.026 188.116ZM479.411 95.4784L480.91 95.5229L480.91 95.5227L479.411 95.4784ZM535.181 77.199L534.047 78.1817V78.1817L535.181 77.199ZM543.276 87.3505L544.143 88.5743L545.393 87.6886L544.481 86.4577L543.276 87.3505ZM514.507 110.659L514.362 112.152L515.025 112.216L515.518 111.766L514.507 110.659ZM479.622 109.096L478.124 109.178L478.203 110.613L479.64 110.596L479.622 109.096ZM576.004 84.2514L575.317 82.9179L575.317 82.9179L576.004 84.2514ZM621.48 77.2479L620.523 78.4025L620.524 78.403L621.48 77.2479ZM624.426 80.843L623.117 81.5753L623.117 81.5754L624.426 80.843ZM620.499 121.145L621.896 121.691L621.896 121.691L620.499 121.145ZM614.542 134.517L613.976 135.906L615.266 136.431L615.886 135.183L614.542 134.517ZM581.596 123.27L580.24 123.911L580.532 124.528L581.188 124.713L581.596 123.27ZM563.892 91.141L563.103 89.8649L561.804 90.6675L562.63 91.9521L563.892 91.141ZM580.837 207.745L581.945 208.756L581.945 208.756L580.837 207.745ZM590.988 196.122L592.452 195.794L591.788 192.831L589.838 195.159L590.988 196.122ZM594.933 217.944L594.964 219.443L596.644 219.408L596.42 217.743L594.933 217.944ZM571.638 217.459L570.568 216.408L568.26 218.759L571.548 218.956L571.638 217.459ZM589.208 140.629L589.671 139.202L586.609 138.209L587.818 141.192L589.208 140.629ZM607.613 147.294L608.908 148.052L609.785 146.552L608.173 145.903L607.613 147.294ZM597.462 163.252L596.036 163.718L596.979 166.602L598.698 164.102L597.462 163.252ZM594.034 153.236L595.445 152.727L595.445 152.727L594.034 153.236ZM533.97 113.06L533.002 111.915L530.473 114.052L533.748 114.544L533.97 113.06ZM551.53 99.3783L552.794 98.5717L551.945 97.2392L550.658 98.1574L551.53 99.3783ZM558.873 111.65L560.182 110.918L560.182 110.917L558.873 111.65ZM562.526 118.432L562.195 119.895L565.359 120.611L563.856 117.737L562.526 118.432ZM547.492 115.327L547.766 113.853L547.765 113.853L547.492 115.327ZM491.511 133.677L492.619 134.688L492.619 134.688L491.511 133.677ZM484.057 142.119L482.588 142.421L483.203 145.419L485.196 143.096L484.057 142.119ZM480.941 123.422L480.929 121.922L479.24 121.935L479.452 123.61L480.941 123.422ZM500.709 123.964L501.779 125.015L504.088 122.664L500.799 122.466L500.709 123.964ZM486.646 201.899L486.2 203.332L489.219 204.271L488.037 201.339L486.646 201.899ZM464.734 194.128L463.439 193.37L462.562 194.87L464.174 195.519L464.734 194.128ZM477.085 175.027L478.518 174.583L477.617 171.678L475.861 174.161L477.085 175.027ZM482.072 189.935L480.661 190.444L480.661 190.444L482.072 189.935ZM538.376 228.361L539.345 229.507L541.875 227.368L538.599 226.878L538.376 228.361ZM522.645 240.731L521.368 241.518L522.218 242.897L523.528 241.944L522.645 240.731ZM513.038 223.701L513.356 222.236L510.238 221.557L511.706 224.391L513.038 223.701ZM524.854 226.095L525.128 224.62L525.128 224.62L524.854 226.095ZM527.735 212.006L528.008 210.531H528.008L527.735 212.006ZM505.061 207.06L503.689 207.668L503.986 208.337L504.696 208.515L505.061 207.06ZM496.312 185.267L497.723 184.758L497.723 184.758L496.312 185.267ZM488.349 160.085L487.178 159.148L486.702 159.743L486.902 160.479L488.349 160.085ZM502.871 143.098L503.979 144.109L503.979 144.109L502.871 143.098ZM519.925 125.679L520.099 124.189L519.4 124.107L518.89 124.593L519.925 125.679ZM544.612 129.416L544.338 130.891L544.338 130.891L544.612 129.416ZM570.643 135.209L572.013 134.598L571.719 133.94L571.022 133.758L570.643 135.209ZM579.794 157.904L578.383 158.413L578.383 158.413L579.794 157.904ZM586.409 178.303L587.591 179.227L588.063 178.623L587.85 177.887L586.409 178.303ZM569.476 198.324L570.584 199.335L570.584 199.335L569.476 198.324ZM552.421 215.744L552.246 217.233L552.946 217.316L553.456 216.83L552.421 215.744ZM634.646 160.359L633.887 161.652L633.887 161.652L634.646 160.359ZM661.508 183.917L660.198 184.649L660.198 184.649L661.508 183.917ZM663.749 194.396L665.218 194.696V194.696L663.749 194.396ZM623.371 215.533L623.609 217.014H623.609L623.371 215.533ZM609.992 217.148L608.505 217.342L608.691 218.766L610.122 218.642L609.992 217.148ZM602.791 181.231L601.589 180.333L601.155 180.914L601.341 181.616L602.791 181.231ZM621.321 153.307L621.971 151.955L620.719 151.354L620.023 152.555L621.321 153.307ZM611.749 248.097L613.248 248.142V248.142L611.749 248.097ZM611.41 231.432L611.281 229.938L609.818 230.064L609.913 231.53L611.41 231.432ZM625.876 229.686L626.114 231.167L626.114 231.167L625.876 229.686ZM678.53 197.139L680 197.44L680 197.439L678.53 197.139ZM642.542 148.136L643.301 146.843L643.301 146.843L642.542 148.136ZM628.205 140.544L626.862 139.878L626.186 141.239L627.556 141.897L628.205 140.544ZM634.611 126.155L636.008 126.701L636.008 126.701L634.611 126.155ZM631.364 66.4186L630.407 67.5734L630.407 67.5735L631.364 66.4186ZM568.845 71.624L568.158 70.2904L568.158 70.2905L568.845 71.624ZM555.624 79.1473L554.418 80.0391L555.239 81.1497L556.414 80.4227L555.624 79.1473ZM546.787 68.0547L545.654 69.0374L545.654 69.0374L546.787 68.0547ZM490.888 40.8663L491.356 42.2917L491.356 42.2917L490.888 40.8663ZM464.357 95.074L462.858 95.0296L462.858 95.0297L464.357 95.074ZM464.581 109.701L464.686 111.197L466.159 111.093L466.078 109.619L464.581 109.701ZM446.47 111.736L446.232 110.255L446.232 110.255L446.47 111.736ZM393.817 144.283L392.347 143.982L392.347 143.983L393.817 144.283ZM397.537 164.168L396.228 164.901L396.228 164.901L397.537 164.168ZM429.806 193.286L430.565 191.992L430.565 191.992L429.806 193.286ZM444.142 200.877L445.485 201.544L446.161 200.183L444.791 199.525L444.142 200.877ZM437.737 215.267L439.134 215.813L439.134 215.813L437.737 215.267ZM434.659 267.388L433.35 268.12L433.35 268.12L434.659 267.388ZM440.982 275.003L440.024 276.157L440.025 276.157L440.982 275.003ZM503.502 269.798L504.189 271.132L504.189 271.132L503.502 269.798ZM518.435 261.211L519.656 260.34L518.832 259.186L517.634 259.943L518.435 261.211ZM529.318 275.117L528.185 276.1L528.185 276.1L529.318 275.117ZM585.219 302.306L585.686 303.731L585.686 303.731L585.219 302.306ZM579.853 287.308C575.659 288.682 570.053 287.578 563.435 283.755C556.86 279.956 549.532 273.609 542.059 264.99L539.792 266.956C547.402 275.731 554.979 282.334 561.934 286.353C568.847 290.346 575.397 291.925 580.788 290.158L579.853 287.308ZM542.059 264.99C538.627 261.031 535.244 256.686 531.927 252.03L529.484 253.77C532.847 258.492 536.288 262.914 539.792 266.956L542.059 264.99ZM531.582 254.117C540.688 247.558 549.845 240.093 558.852 231.87L556.829 229.655C547.902 237.805 538.834 245.196 529.829 251.683L531.582 254.117ZM557.696 232.256C571.144 233.56 584.166 234.067 596.422 233.761L596.347 230.762C584.225 231.065 571.325 230.564 557.985 229.27L557.696 232.256ZM594.887 232.359C595.232 237.665 595.34 242.778 595.196 247.649L598.195 247.738C598.341 242.762 598.231 237.554 597.881 232.164L594.887 232.359ZM595.196 247.649C594.865 258.82 593.185 268.106 590.459 274.938C587.718 281.808 584.032 285.938 579.853 287.308L580.788 290.158C586.196 288.386 590.363 283.275 593.246 276.049C596.144 268.785 597.858 259.123 598.195 247.738L595.196 247.649ZM495.657 255.836C485.33 261.154 476.032 264.42 468.433 265.59C460.777 266.769 455.153 265.78 451.823 263.019L449.909 265.329C454.227 268.909 460.927 269.781 468.89 268.555C476.911 267.319 486.527 263.912 497.03 258.503L495.657 255.836ZM451.823 263.019C448.515 260.279 446.724 255.162 446.889 247.812C447.053 240.508 449.152 231.298 453.246 220.822L450.452 219.73C446.282 230.401 444.064 239.971 443.889 247.745C443.716 255.473 445.565 261.731 449.909 265.329L451.823 263.019ZM453.246 220.822C454.929 216.514 456.908 212.085 459.148 207.571L456.461 206.237C454.186 210.82 452.171 215.33 450.452 219.73L453.246 220.822ZM457.239 208.293C468.51 212.886 480.781 216.999 493.74 220.528L494.528 217.633C481.674 214.133 469.519 210.057 458.371 205.515L457.239 208.293ZM492.776 219.718C495.909 226.39 499.199 232.841 502.637 238.984L505.255 237.519C501.856 231.445 498.597 225.058 495.492 218.443L492.776 219.718ZM502.637 238.984C504.736 242.739 506.891 246.374 509.085 249.895L511.631 248.308C509.461 244.826 507.331 241.232 505.255 237.52L502.637 238.984ZM509.556 247.834C504.852 250.811 500.207 253.494 495.657 255.836L497.03 258.503C501.668 256.115 506.391 253.388 511.16 250.369L509.556 247.834ZM438.459 179.769C428.463 173.904 420.854 167.865 416.002 162.19C411.11 156.468 409.239 151.385 410.069 147.327L407.129 146.726C406.02 152.15 408.619 158.172 413.722 164.14C418.865 170.155 426.776 176.393 436.941 182.357L438.459 179.769ZM410.069 147.326C410.9 143.255 414.653 139.198 421.455 135.638C428.197 132.108 437.636 129.231 449.214 127.37L448.738 124.408C436.97 126.3 427.189 129.25 420.064 132.98C412.997 136.679 408.235 141.314 407.129 146.726L410.069 147.326ZM449.214 127.37C454.499 126.52 460.106 125.902 465.962 125.492L465.752 122.499C459.822 122.914 454.125 123.542 448.738 124.408L449.214 127.37ZM464.368 124.177C465.662 134.798 467.744 145.919 470.571 157.302L473.482 156.579C470.683 145.303 468.623 134.303 467.346 123.814L464.368 124.177ZM470.836 156.028C462.804 166.502 455.707 177.038 449.728 187.364L452.324 188.867C458.232 178.665 465.256 168.236 473.217 157.853L470.836 156.028ZM451.675 186.763C446.992 184.515 442.57 182.182 438.459 179.77L436.941 182.357C441.133 184.817 445.629 187.189 450.376 189.468L451.675 186.763ZM480.91 95.5227C481.24 84.3521 482.921 75.0657 485.647 68.2341C488.389 61.3638 492.075 57.2332 496.253 55.8638L495.319 53.013C489.911 54.7854 485.744 59.8969 482.861 67.1223C479.962 74.3863 478.248 84.049 477.911 95.434L480.91 95.5227ZM496.253 55.8638C500.448 54.4889 506.054 55.5928 512.672 59.4164C519.246 63.2151 526.574 69.5628 534.047 78.1817L536.314 76.2164C528.705 67.4407 521.128 60.8373 514.172 56.8188C507.26 52.8252 500.71 51.2461 495.319 53.013L496.253 55.8638ZM534.047 78.1817C536.754 81.3031 539.429 84.6774 542.071 88.2433L544.481 86.4577C541.803 82.8416 539.079 79.4057 536.314 76.2164L534.047 78.1817ZM542.409 86.1267C532.762 92.9639 523.043 100.834 513.495 109.551L515.518 111.766C524.982 103.126 534.605 95.3343 544.143 88.5743L542.409 86.1267ZM514.651 109.166C502.539 107.991 490.776 107.466 479.605 107.596L479.64 110.596C490.694 110.468 502.349 110.987 514.362 112.152L514.651 109.166ZM481.12 109.014C480.863 104.351 480.782 99.8364 480.91 95.5229L477.911 95.4339C477.78 99.8455 477.864 104.446 478.124 109.178L481.12 109.014ZM576.691 85.585C587.016 80.2671 596.315 77.0018 603.914 75.8317C611.57 74.6526 617.194 75.6419 620.523 78.4025L622.438 76.0933C618.12 72.5126 611.42 71.6403 603.457 72.8666C595.436 74.1019 585.82 77.5089 575.317 82.9179L576.691 85.585ZM620.524 78.403C621.537 79.2429 622.404 80.2992 623.117 81.5753L625.736 80.1107C624.859 78.5435 623.763 77.1909 622.437 76.0928L620.524 78.403ZM623.117 81.5754C625.109 85.135 625.89 90.3805 625.246 97.086C624.605 103.763 622.567 111.731 619.102 120.599L621.896 121.691C625.43 112.646 627.558 104.401 628.232 97.3727C628.904 90.3737 628.149 84.4244 625.736 80.1105L623.117 81.5754ZM619.102 120.599C617.418 124.907 615.439 129.336 613.198 133.85L615.886 135.183C618.16 130.601 620.176 126.091 621.896 121.691L619.102 120.599ZM615.108 133.127C604.824 128.938 593.718 125.139 582.004 121.827L581.188 124.713C592.803 127.998 603.803 131.762 613.976 135.906L615.108 133.127ZM582.952 122.629C577.467 111.033 571.482 100.175 565.153 90.3299L562.63 91.9521C568.882 101.679 574.805 112.422 580.24 123.911L582.952 122.629ZM564.68 92.417C568.739 89.909 572.753 87.6129 576.691 85.585L575.317 82.9179C571.299 84.9872 567.217 87.3231 563.103 89.8649L564.68 92.417ZM581.945 208.756C585.464 204.899 588.856 201.002 592.138 197.085L589.838 195.159C586.581 199.047 583.217 202.911 579.729 206.734L581.945 208.756ZM589.524 196.45C591.187 203.873 592.502 211.13 593.446 218.144L596.42 217.743C595.462 210.637 594.132 203.294 592.452 195.794L589.524 196.45ZM594.902 216.444C587.467 216.6 579.717 216.441 571.728 215.962L571.548 218.956C579.613 219.44 587.444 219.601 594.964 219.443L594.902 216.444ZM572.709 218.51C575.822 215.339 578.905 212.087 581.945 208.756L579.729 206.733C576.715 210.036 573.657 213.262 570.568 216.408L572.709 218.51ZM588.745 142.055C595.117 144.122 601.227 146.34 607.053 148.686L608.173 145.903C602.282 143.531 596.106 141.289 589.671 139.202L588.745 142.055ZM606.318 146.537C603.257 151.77 599.891 157.071 596.226 162.402L598.698 164.102C602.403 158.712 605.808 153.35 608.908 148.052L606.318 146.537ZM598.887 162.786C597.794 159.443 596.658 156.089 595.445 152.727L592.623 153.745C593.823 157.071 594.949 160.395 596.036 163.718L598.887 162.786ZM595.445 152.727C593.9 148.444 592.282 144.221 590.598 140.065L587.818 141.192C589.487 145.312 591.091 149.499 592.623 153.745L595.445 152.727ZM534.939 114.206C540.761 109.285 546.601 104.739 552.401 100.599L550.658 98.1574C544.788 102.347 538.884 106.943 533.002 111.915L534.939 114.206ZM550.265 100.185C552.754 104.088 555.194 108.148 557.564 112.382L560.182 110.917C557.783 106.631 555.313 102.521 552.794 98.5717L550.265 100.185ZM557.563 112.381C558.792 114.58 560 116.838 561.197 119.127L563.856 117.737C562.651 115.433 561.429 113.149 560.182 110.918L557.563 112.381ZM562.858 116.969C557.897 115.846 552.865 114.8 547.766 113.853L547.218 116.802C552.276 117.742 557.27 118.78 562.195 119.895L562.858 116.969ZM547.765 113.853C543.22 113.009 538.692 112.252 534.193 111.577L533.748 114.544C538.214 115.214 542.707 115.965 547.218 116.802L547.765 113.853ZM490.403 132.665C487.839 135.474 485.353 138.304 482.919 141.143L485.196 143.096C487.615 140.275 490.08 137.468 492.619 134.688L490.403 132.665ZM485.527 141.818C484.224 135.468 483.191 129.26 482.429 123.234L479.452 123.61C480.225 129.716 481.271 136 482.588 142.421L485.527 141.818ZM480.952 124.922C487.305 124.874 493.879 125.056 500.619 125.461L500.799 122.466C493.996 122.057 487.355 121.874 480.929 121.922L480.952 124.922ZM499.639 122.912C496.524 126.083 493.443 129.335 490.403 132.665L492.619 134.688C495.633 131.385 498.69 128.16 501.779 125.015L499.639 122.912ZM487.092 200.467C479.463 198.092 472.172 195.506 465.294 192.736L464.174 195.519C471.132 198.321 478.499 200.934 486.2 203.332L487.092 200.467ZM466.029 194.885C469.686 188.631 473.794 182.279 478.31 175.893L475.861 174.161C471.299 180.612 467.143 187.037 463.439 193.37L466.029 194.885ZM475.653 175.472C477.195 180.443 478.856 185.44 480.661 190.444L483.483 189.426C481.695 184.469 480.048 179.516 478.518 174.583L475.653 175.472ZM480.661 190.444C482.128 194.508 483.664 198.512 485.255 202.46L488.037 201.339C486.459 197.422 484.936 193.452 483.483 189.426L480.661 190.444ZM537.408 227.215C532.193 231.623 526.964 235.733 521.763 239.518L523.528 241.944C528.791 238.114 534.077 233.959 539.345 229.507L537.408 227.215ZM523.922 239.944C520.626 234.596 517.436 228.932 514.37 223.011L511.706 224.391C514.803 230.372 518.03 236.101 521.368 241.518L523.922 239.944ZM512.719 225.167C516.631 226.018 520.582 226.827 524.581 227.569L525.128 224.62C521.165 223.884 517.245 223.081 513.356 222.236L512.719 225.167ZM524.581 227.569C529.125 228.413 533.653 229.17 538.154 229.844L538.599 226.878C534.132 226.208 529.638 225.457 525.128 224.62L524.581 227.569ZM528.008 210.531C520.302 209.101 512.762 207.443 505.425 205.605L504.696 208.515C512.091 210.368 519.691 212.038 527.461 213.481L528.008 210.531ZM506.432 206.452C503.332 199.455 500.411 192.21 497.723 184.758L494.901 185.776C497.614 193.296 500.561 200.607 503.689 207.668L506.432 206.452ZM497.723 184.758C494.685 176.337 492.043 167.949 489.797 159.691L486.902 160.479C489.169 168.814 491.836 177.279 494.901 185.776L497.723 184.758ZM489.52 161.023C494.069 155.342 498.888 149.686 503.979 144.109L501.763 142.087C496.627 147.713 491.766 153.419 487.178 159.148L489.52 161.023ZM503.979 144.109C509.523 138.035 515.206 132.244 520.959 126.765L518.89 124.593C513.087 130.119 507.355 135.96 501.763 142.087L503.979 144.109ZM519.75 127.169C527.825 128.116 536.044 129.35 544.338 130.891L544.886 127.941C536.525 126.388 528.24 125.144 520.099 124.189L519.75 127.169ZM544.338 130.891C553.22 132.539 561.892 134.476 570.264 136.661L571.022 133.758C562.579 131.554 553.837 129.603 544.886 127.941L544.338 130.891ZM569.274 135.821C572.523 143.095 575.579 150.643 578.383 158.413L581.205 157.394C578.376 149.553 575.292 141.937 572.013 134.598L569.274 135.821ZM578.383 158.413C580.84 165.22 583.027 172.004 584.968 178.72L587.85 177.887C585.892 171.111 583.685 164.266 581.205 157.394L578.383 158.413ZM585.227 177.38C579.996 184.073 574.362 190.746 568.368 197.313L570.584 199.335C576.629 192.712 582.312 185.982 587.591 179.227L585.227 177.38ZM568.369 197.313C562.824 203.387 557.141 209.177 551.387 214.657L553.456 216.83C559.259 211.302 564.991 205.462 570.584 199.335L568.369 197.313ZM552.596 214.254C544.522 213.306 536.301 212.071 528.008 210.531L527.461 213.481C535.82 215.033 544.107 216.278 552.246 217.233L552.596 214.254ZM633.887 161.652C647.208 169.468 656.232 177.559 660.198 184.649L662.817 183.184C658.46 175.398 648.885 166.974 635.405 159.065L633.887 161.652ZM660.198 184.649C662.188 188.206 662.834 191.38 662.279 194.096L665.218 194.696C665.963 191.05 665.026 187.133 662.817 183.184L660.198 184.649ZM662.279 194.096C661.447 198.166 657.694 202.223 650.892 205.784C644.15 209.314 634.711 212.191 623.133 214.052L623.609 217.014C635.377 215.123 645.157 212.172 652.283 208.442C659.35 204.743 664.112 200.108 665.218 194.696L662.279 194.096ZM623.133 214.052C618.908 214.732 614.464 215.255 609.863 215.653L610.122 218.642C614.781 218.239 619.298 217.707 623.609 217.014L623.133 214.052ZM611.48 216.953C609.969 205.385 607.536 193.247 604.241 180.846L601.341 181.616C604.606 193.904 607.013 205.914 608.505 217.342L611.48 216.953ZM603.992 182.129C611.015 172.733 617.26 163.311 622.619 154.059L620.023 152.555C614.727 161.698 608.548 171.023 601.589 180.333L603.992 182.129ZM620.672 154.659C625.355 156.907 629.777 159.241 633.887 161.652L635.405 159.065C631.214 156.606 626.718 154.234 621.971 151.955L620.672 154.659ZM613.248 248.142C613.407 242.765 613.284 237.142 612.907 231.335L609.913 231.53C610.285 237.255 610.405 242.783 610.249 248.053L613.248 248.142ZM611.539 232.927C616.57 232.492 621.451 231.917 626.114 231.167L625.638 228.205C621.06 228.941 616.253 229.508 611.281 229.938L611.539 232.927ZM626.114 231.167C641.565 228.684 654.118 224.514 663.263 218.862C672.419 213.202 678.252 205.989 680 197.44L677.061 196.839C675.526 204.348 670.368 210.943 661.686 216.31C652.992 221.684 640.859 225.759 625.638 228.205L626.114 231.167ZM680 197.439C681.747 188.885 679.178 180.096 672.908 171.558C666.649 163.035 656.647 154.674 643.301 146.843L641.782 149.43C654.924 157.142 664.556 165.254 670.49 173.333C676.411 181.397 678.592 189.338 677.06 196.839L680 197.439ZM643.301 146.843C638.786 144.194 633.954 141.641 628.855 139.192L627.556 141.897C632.59 144.314 637.348 146.828 641.782 149.43L643.301 146.843ZM629.549 141.211C631.992 136.287 634.156 131.438 636.008 126.701L633.213 125.609C631.397 130.255 629.27 135.024 626.862 139.878L629.549 141.211ZM636.008 126.701C641.482 112.69 643.978 100.217 643.413 89.8116C642.846 79.3799 639.192 70.9582 632.321 65.2637L630.407 67.5735C636.488 72.6134 639.885 80.1677 640.418 89.9743C640.952 99.8074 638.595 111.836 633.213 125.609L636.008 126.701ZM632.322 65.2639C625.463 59.5777 616.248 57.3109 605.386 58.2151C594.537 59.1183 581.949 63.1879 568.158 70.2904L569.532 72.9575C583.107 65.9661 595.305 62.0648 605.635 61.2048C615.954 60.3457 624.316 62.5232 630.407 67.5734L632.322 65.2639ZM568.158 70.2905C563.771 72.5503 559.319 75.0959 554.835 77.8719L556.414 80.4227C560.842 77.6818 565.225 75.1762 569.532 72.9574L568.158 70.2905ZM556.83 78.2554C553.912 74.3088 550.942 70.5563 547.92 67.072L545.654 69.0374C548.615 72.4527 551.537 76.1428 554.418 80.0391L556.83 78.2554ZM547.92 67.072C528.033 44.1375 507.584 33.8149 490.421 39.441L491.356 42.2917C506.655 37.2765 525.907 46.2647 545.654 69.0374L547.92 67.072ZM490.421 39.441C473.215 45.0803 463.739 65.275 462.858 95.0296L465.857 95.1184C466.731 65.5998 476.098 47.2924 491.356 42.2917L490.421 39.441ZM462.858 95.0297C462.718 99.7698 462.805 104.706 463.083 109.783L466.078 109.619C465.804 104.613 465.719 99.7616 465.857 95.1184L462.858 95.0297ZM464.476 108.204C458.127 108.651 452.017 109.325 446.232 110.255L446.708 113.217C452.393 112.303 458.412 111.638 464.686 111.197L464.476 108.204ZM446.232 110.255C430.78 112.739 418.228 116.908 409.083 122.561C399.927 128.221 394.095 135.433 392.347 143.982L395.286 144.583C396.821 137.075 401.979 130.479 410.661 125.113C419.354 119.739 431.487 115.664 446.708 113.217L446.232 110.255ZM392.347 143.983C390.939 150.879 392.334 157.941 396.228 164.901L398.846 163.436C395.234 156.979 394.048 150.646 395.286 144.583L392.347 143.983ZM396.228 164.901C401.959 175.144 413.138 185.245 429.047 194.579L430.565 191.992C414.875 182.786 404.208 173.019 398.846 163.436L396.228 164.901ZM429.047 194.579C433.56 197.228 438.393 199.78 443.492 202.229L444.791 199.525C439.757 197.107 434.998 194.593 430.565 191.992L429.047 194.579ZM442.798 200.21C440.354 205.134 438.191 209.983 436.34 214.721L439.134 215.813C440.95 211.166 443.076 206.397 445.485 201.544L442.798 200.21ZM436.34 214.721C427.594 237.104 426.402 255.701 433.35 268.12L435.968 266.655C429.694 255.441 430.484 237.951 439.134 215.813L436.34 214.721ZM433.35 268.12C435.078 271.21 437.306 273.902 440.024 276.157L441.94 273.848C439.511 271.833 437.519 269.429 435.968 266.655L433.35 268.12ZM440.025 276.157C446.883 281.844 456.098 284.111 466.96 283.207C477.809 282.303 490.397 278.234 504.189 271.132L502.815 268.464C489.239 275.456 477.041 279.357 466.711 280.217C456.392 281.076 448.031 278.898 441.939 273.848L440.025 276.157ZM504.189 271.132C509.135 268.583 514.164 265.683 519.236 262.48L517.634 259.943C512.627 263.105 507.674 265.961 502.815 268.465L504.189 271.132ZM517.214 262.083C520.789 267.092 524.452 271.794 528.185 276.1L530.452 274.135C526.789 269.91 523.184 265.284 519.656 260.34L517.214 262.083ZM528.185 276.1C548.071 299.034 568.523 309.356 585.686 303.731L584.752 300.88C569.452 305.895 550.197 296.907 530.451 274.135L528.185 276.1ZM585.686 303.731C602.891 298.092 612.367 277.897 613.248 248.142L610.249 248.053C609.375 277.572 600.008 295.88 584.752 300.88L585.686 303.731Z" fill="#D8262C"/>
<path fill-rule="evenodd" clip-rule="evenodd" d="M544.775 167.157C544.002 165.471 542.697 164.063 541.002 163.11C538.874 161.917 536.386 161.584 533.996 162.174C529.062 163.391 526.086 168.208 527.363 172.911C527.984 175.189 529.494 177.101 531.621 178.295C533.75 179.489 536.237 179.822 538.627 179.232C543.561 178.015 546.537 173.198 545.26 168.496C545.134 168.034 544.971 167.586 544.775 167.157ZM514.058 180.024C513.541 178.896 513.114 177.721 512.785 176.507C509.429 164.142 517.251 151.479 530.222 148.28C536.507 146.729 543.048 147.604 548.642 150.743C554.235 153.883 558.212 158.91 559.838 164.9C563.196 177.263 555.373 189.927 542.401 193.126C536.117 194.677 529.575 193.802 523.981 190.663C519.522 188.161 516.089 184.458 514.058 180.024Z" fill="#F2BCC0"/>
<path d="M544.775 167.157L543.411 167.782L543.411 167.782L544.775 167.157ZM541.002 163.11L541.736 161.803L541.735 161.802L541.002 163.11ZM533.996 162.174L534.355 163.63L534.355 163.63L533.996 162.174ZM527.363 172.911L525.915 173.304L525.916 173.306L527.363 172.911ZM531.621 178.295L530.886 179.603L530.887 179.603L531.621 178.295ZM538.627 179.232L538.987 180.688L538.987 180.688L538.627 179.232ZM545.26 168.496L546.707 168.102L546.707 168.101L545.26 168.496ZM514.058 180.024L515.421 179.399L515.421 179.399L514.058 180.024ZM512.785 176.507L511.337 176.9L511.337 176.9L512.785 176.507ZM530.222 148.28L530.581 149.736L530.582 149.736L530.222 148.28ZM548.642 150.743L549.377 149.435L549.376 149.435L548.642 150.743ZM559.838 164.9L561.286 164.507L561.286 164.507L559.838 164.9ZM542.401 193.126L542.042 191.67L542.042 191.67L542.401 193.126ZM523.981 190.663L524.715 189.355L524.715 189.355L523.981 190.663ZM546.139 166.532C545.229 164.547 543.698 162.904 541.736 161.803L540.267 164.418C541.695 165.221 542.776 166.394 543.411 167.782L546.139 166.532ZM541.735 161.802C539.272 160.42 536.393 160.038 533.637 160.718L534.355 163.63C536.379 163.131 538.475 163.413 540.268 164.419L541.735 161.802ZM533.637 160.718C527.946 162.121 524.402 167.73 525.915 173.304L528.811 172.518C527.77 168.686 530.179 164.66 534.355 163.63L533.637 160.718ZM525.916 173.306C526.647 175.984 528.422 178.219 530.886 179.603L532.355 176.987C530.567 175.983 529.322 174.394 528.81 172.516L525.916 173.306ZM530.887 179.603C533.351 180.985 536.23 181.368 538.987 180.688L538.268 177.776C536.245 178.275 534.148 177.992 532.355 176.987L530.887 179.603ZM538.987 180.688C544.677 179.284 548.221 173.677 546.707 168.102L543.812 168.889C544.853 172.72 542.445 176.745 538.268 177.776L538.987 180.688ZM546.707 168.101C546.559 167.561 546.369 167.036 546.138 166.532L543.411 167.782C543.573 168.135 543.708 168.506 543.812 168.89L546.707 168.101ZM515.421 179.399C514.939 178.346 514.54 177.249 514.232 176.114L511.337 176.9C511.688 178.194 512.143 179.446 512.694 180.649L515.421 179.399ZM514.232 176.114C511.113 164.62 518.367 152.749 530.581 149.736L529.863 146.823C516.134 150.21 507.745 163.664 511.337 176.9L514.232 176.114ZM530.582 149.736C536.5 148.276 542.65 149.1 547.908 152.051L549.376 149.435C543.446 146.107 536.514 145.182 529.863 146.823L530.582 149.736ZM547.908 152.051C553.163 155.001 556.873 159.706 558.391 165.293L561.286 164.507C559.55 158.114 555.307 152.764 549.377 149.435L547.908 152.051ZM558.391 165.293C561.512 176.785 554.256 188.657 542.042 191.67L542.761 194.583C556.49 191.196 564.88 177.742 561.286 164.507L558.391 165.293ZM542.042 191.67C536.124 193.13 529.973 192.306 524.715 189.355L523.247 191.971C529.177 195.299 536.11 196.224 542.761 194.583L542.042 191.67ZM524.715 189.355C520.523 187.002 517.316 183.534 515.421 179.399L512.694 180.649C514.863 185.381 518.521 189.319 523.247 191.971L524.715 189.355Z" fill="#D8262C"/>
<path fill-rule="evenodd" clip-rule="evenodd" d="M534.91 282.873H655.774V286.877C655.774 296.651 647.461 304.573 637.207 304.573H534.91" fill="white"/>
<path d="M534.91 282.873H655.774V286.877C655.774 296.651 647.461 304.573 637.207 304.573H534.91" stroke="#D8262C" stroke-width="3"/>
<path d="M618.889 304.39H862.11" stroke="#D8262C" stroke-width="3"/>
<path d="M73.6274 304.39H316.755" stroke="#D8262C" stroke-width="3"/>
<path fill-rule="evenodd" clip-rule="evenodd" d="M674.934 282.902C674.934 282.902 674.527 292.886 669.511 295.367C661.041 299.557 660.136 300.427 660.136 303.449H686.798C687.637 295.103 682.661 292.373 682.661 284.657" fill="#F2BCC0"/>
<path d="M674.934 282.902C674.934 282.902 674.527 292.886 669.511 295.367C661.041 299.557 660.136 300.427 660.136 303.449H686.798C687.637 295.103 682.661 292.373 682.661 284.657" stroke="#D8262C" stroke-width="3"/>
<path fill-rule="evenodd" clip-rule="evenodd" d="M720.562 284.37C720.562 289.655 724.814 296.435 724.814 303.915H697.933C697.933 303.915 697.173 299.534 705.161 296.27C713.149 293.006 712.741 287.809 712.414 284.37H720.562Z" fill="#F2BCC0"/>
<path fill-rule="evenodd" clip-rule="evenodd" d="M687.835 153.3C687.835 153.3 684.903 146.623 684.577 144.917C682.695 135.053 692.191 131.854 692.191 131.854C692.191 131.854 694.749 136.812 703.332 139.778C689.256 144.684 687.835 153.3 687.835 153.3Z" fill="#F2BCC0"/>
<path fill-rule="evenodd" clip-rule="evenodd" d="M687.566 178.5L699.608 179.049L700.033 174.989L703.473 172.406L717.275 170.493L724.938 166.809L724.983 163.24L726.257 164.721L731.161 161.999L736.457 162.131L735.942 157.07L730.818 144.933L721.352 138.41L719.6 137.811L714.046 145.966L704.176 152.717L695.245 150.246L693.651 144.808L688.441 152.44L686.736 168.105L687.566 178.5Z" fill="#F2BCC0"/>
<path fill-rule="evenodd" clip-rule="evenodd" d="M719.607 123.264L718.396 137.751C718.396 137.751 710.557 156.023 698.432 151.712C685.024 146.944 709.613 136.737 709.613 136.737L707.688 127.346L702.654 125.627C697.686 123.932 695.102 118.72 696.88 113.985L701.227 102.419C702.403 99.2909 706.017 97.6624 709.299 98.7834C709.862 110.92 718.004 115.762 718.004 115.762C719.184 114.867 720.809 114.556 722.334 115.077C724.679 115.877 725.899 118.337 725.059 120.572C724.257 122.708 721.864 123.863 719.607 123.264Z" stroke="#D8262C" stroke-width="3"/>
<path d="M726.251 166.691C726.251 166.691 718.733 171.441 710.608 171.179C710.608 171.179 699.647 169.992 699.647 178.275C699.647 180.444 706.403 180.937 706.403 180.937" stroke="#D8262C" stroke-width="3"/>
<path d="M718.733 136.949C718.733 136.949 724.184 139.185 727.901 142.172C733.039 146.302 737.443 159.006 736.914 163.397C730.37 159.766 725.894 165.785 725.894 165.785C724.298 163.452 720.565 159.118 720.565 159.118" stroke="#D8262C" stroke-width="3"/>
<path d="M700.526 178.732L686.925 178.615C687.322 168.7 686.052 157.92 688.298 151.358C690.544 144.796 698.474 142.064 703.331 139.451" stroke="#D8262C" stroke-width="3"/>
<path d="M698.852 230.643L683.032 284.196L674.933 282.704C674.933 282.704 679.717 224.139 687.015 179.064" stroke="#D8262C" stroke-width="3"/>
<path d="M736.77 163.956C736.77 165.889 735.391 171.939 735.391 171.939L714.886 178.772C714.886 178.772 729.644 186.132 720.544 207.683V283.904H711.858C711.858 283.904 694.21 218.985 694.692 201.638" stroke="#D8262C" stroke-width="3"/>
<path d="M711.78 284.395C711.78 284.395 714.607 291.622 707.368 295.368C698.981 299.706 697.993 300.427 697.993 303.449H724.654C725.494 295.104 720.518 292.374 720.518 284.657" stroke="#D8262C" stroke-width="3"/>
<path d="M699.004 108.485C690.418 97.3196 705.384 76.6388 730.276 89.5126C742.087 95.6218 743.305 109.361 742.311 122.134C741.46 133.075 732.767 136.057 719.031 132.943" stroke="#D8262C" stroke-width="3"/>
<path d="M684.577 144.917L666.248 125.4L651.335 100.873C651.335 100.873 646.646 90.2703 643.774 85.4287C643.774 85.4287 648.021 82.4036 652.903 88.6085C657.785 94.8133 657.785 98.4294 657.785 98.4294L674.934 117.771C674.934 117.771 694.148 138.929 704.309 139.256" stroke="#D8262C" stroke-width="3"/>
<path fill-rule="evenodd" clip-rule="evenodd" d="M802.584 249.92H785.639C764.99 249.92 774.423 283.327 777.9 296.549C779.111 301.152 783.454 304.371 788.434 304.371H802.584H816.735C821.714 304.371 826.058 301.152 827.269 296.549C830.745 283.327 840.178 249.92 819.53 249.92H802.584Z" fill="white"/>
<path fill-rule="evenodd" clip-rule="evenodd" d="M802.584 249.92H785.639C764.99 249.92 774.423 283.327 777.9 296.549C779.111 301.152 783.454 304.371 788.434 304.371H802.584H816.735C821.714 304.371 826.058 301.152 827.269 296.549C830.745 283.327 840.178 249.92 819.53 249.92H802.584Z" stroke="#D8262C" stroke-width="3"/>
<path fill-rule="evenodd" clip-rule="evenodd" d="M796.105 153.991C801.261 156.8 802.813 152.782 806.983 153.991C811.154 155.201 827.108 174.9 782.146 192.699C782.146 192.699 766.01 182.678 770.542 165.052C775.074 147.424 792.298 151.917 796.105 153.991Z" fill="#F9DEE0"/>
<path fill-rule="evenodd" clip-rule="evenodd" d="M796.105 153.991C801.261 156.8 802.813 152.782 806.983 153.991C811.154 155.201 827.108 174.9 782.146 192.699C782.146 192.699 766.01 182.678 770.542 165.052C775.074 147.424 792.298 151.917 796.105 153.991Z" stroke="#D8262C" stroke-width="3"/>
<path fill-rule="evenodd" clip-rule="evenodd" d="M801.001 192.699C808.45 192.514 822.03 199.093 813.147 215.942C804.264 232.79 795.018 234.345 795.018 234.345C795.018 234.345 780.876 226.656 778.973 213.522C777.069 200.389 787.131 193.045 801.001 192.699Z" fill="#F9DEE0"/>
<path fill-rule="evenodd" clip-rule="evenodd" d="M801.001 192.699C808.45 192.514 822.03 199.093 813.147 215.942C804.264 232.79 795.018 234.345 795.018 234.345C795.018 234.345 780.876 226.656 778.973 213.522C777.069 200.389 787.131 193.045 801.001 192.699Z" stroke="#D8262C" stroke-width="3"/>
<path fill-rule="evenodd" clip-rule="evenodd" d="M788.763 173.691C786.734 168.32 751.233 167.729 753.682 200.907C753.554 206.092 776.253 190.539 780.332 187.17C784.412 183.8 791.211 180.171 788.763 173.691Z" fill="#F9DEE0"/>
<path fill-rule="evenodd" clip-rule="evenodd" d="M788.763 173.691C786.734 168.32 751.233 167.729 753.682 200.907C753.554 206.092 776.253 190.539 780.332 187.17C784.412 183.8 791.211 180.171 788.763 173.691Z" stroke="#D8262C" stroke-width="3"/>
<path fill-rule="evenodd" clip-rule="evenodd" d="M816.578 174.746C818.606 169.375 854.107 168.784 851.66 201.962C851.786 207.146 829.088 191.594 825.008 188.224C820.929 184.855 814.13 181.226 816.578 174.746Z" fill="#F9DEE0"/>
<path fill-rule="evenodd" clip-rule="evenodd" d="M816.578 174.746C818.606 169.375 854.107 168.784 851.66 201.962C851.786 207.146 829.088 191.594 825.008 188.224C820.929 184.855 814.13 181.226 816.578 174.746Z" stroke="#D8262C" stroke-width="3"/>
<path fill-rule="evenodd" clip-rule="evenodd" d="M792.026 150.058C796.995 154.838 795.564 141.863 789.593 134.155C783.613 126.435 767.784 121.734 751.875 132.522C750.895 133.186 751.283 134.65 752.48 134.758C760.268 135.458 779.851 138.348 792.026 150.058Z" fill="#F9DEE0"/>
<path fill-rule="evenodd" clip-rule="evenodd" d="M792.026 150.058C796.995 154.838 795.564 141.863 789.593 134.155C783.613 126.435 767.784 121.734 751.875 132.522C750.895 133.186 751.283 134.65 752.48 134.758C760.268 135.458 779.851 138.348 792.026 150.058Z" stroke="#D8262C" stroke-width="3"/>
<path fill-rule="evenodd" clip-rule="evenodd" d="M807.925 149.161C813.147 150.7 818.625 150.216 823.976 142.479C829.326 134.742 837.005 121.804 836.152 118.739C834.953 114.431 829.833 113.581 821.808 113.904C814.07 114.215 802.584 121.553 801.099 135.445C799.824 147.362 807.925 149.161 807.925 149.161Z" fill="#F9DEE0"/>
<path fill-rule="evenodd" clip-rule="evenodd" d="M807.925 149.161C813.147 150.7 818.625 150.216 823.976 142.479C829.326 134.742 837.005 121.804 836.152 118.739C834.953 114.431 829.833 113.581 821.808 113.904C814.07 114.215 802.584 121.553 801.099 135.445C799.824 147.362 807.925 149.161 807.925 149.161Z" stroke="#D8262C" stroke-width="3"/>
<path d="M802.584 229.997V249.919" stroke="#D8262C" stroke-width="3"/>
<path d="M802.584 181.9V191.495" stroke="#D8262C" stroke-width="3"/>
<path d="M816.578 174.746C811.431 176.768 804.07 177.823 802.584 189.078" stroke="#D8262C" stroke-width="3"/>
<path d="M790.26 165.338C790.26 165.338 793.345 156.962 799.251 154.996" stroke="#D8262C" stroke-width="3"/>
<path fill-rule="evenodd" clip-rule="evenodd" d="M801.001 192.699C801.001 192.699 796.293 195.936 796.293 205.256L801.001 192.699Z" fill="#F9DEE0"/>
<path d="M801.001 192.699C801.001 192.699 796.293 195.936 796.293 205.256" stroke="#D8262C" stroke-width="3"/>
<path d="M812.399 141.995C810.6 147.534 808.634 154.996 808.634 154.996" stroke="#D8262C" stroke-width="3"/>
<path fill-rule="evenodd" clip-rule="evenodd" d="M283.953 192.959C283.953 192.959 271.259 210.644 275.165 231.119L276.141 233.911L284.515 231.586C284.515 231.586 292.221 226.344 293.459 224.544C294.695 222.743 291.203 224.312 291.484 221.666C291.766 219.019 295.671 198.543 295.671 198.543L283.953 192.959Z" fill="white"/>
<path fill-rule="evenodd" clip-rule="evenodd" d="M294.711 197.153C294.711 197.153 291.932 213.48 291.282 217.923C290.63 222.367 292.354 223.967 295.965 223.873C299.601 223.778 330.175 217.284 330.175 217.284L338.885 215.131C344.825 213.945 348.324 219.84 351.213 221.256C356.131 223.665 357.923 221.021 358.628 217.667C359.554 213.269 353.807 208.8 353.118 208.283C350.481 206.305 336.443 207.468 336.443 207.468L307.637 210.036L309.647 201.063C309.647 201.063 297.464 202.686 292.598 194.555L294.711 197.153Z" fill="white"/>
<path fill-rule="evenodd" clip-rule="evenodd" d="M278.869 234.266C278.869 234.266 289.293 230.067 293.458 224.544L336.298 215.77C336.298 215.77 344.577 212.24 350.395 220.748C356.214 229.258 360.119 215.297 358.167 213.435C356.214 211.574 359.211 211.304 359.211 211.304C359.211 211.304 371.107 207.002 373.913 221.853C376.719 236.704 355.048 246.144 355.048 246.144L332.778 263.694L322.501 257.083L315.282 261.367L305.429 251.76L307.39 248.803C307.39 248.803 293.473 254.24 286.271 247.798C279.071 241.357 278.869 234.266 278.869 234.266Z" fill="#F2BCC0"/>
<path d="M347.343 177.526L361.981 172.806C361.981 172.806 376.121 162.026 380.924 157.069C385.182 152.673 381.927 136.92 389.915 137.011" stroke="#D8262C" stroke-width="3"/>
<path fill-rule="evenodd" clip-rule="evenodd" d="M323.87 171.749C323.87 171.749 299.349 159.485 309.291 138.431C315.565 125.147 338.915 129.273 346.101 130.586C352.43 142.648 327.866 146.904 328.324 156.764C327.19 155.396 325.227 154.714 323.249 155.339C321.6 155.861 320.382 157.297 320.197 158.943C319.886 161.726 322.215 163.917 324.924 163.809L323.87 171.749Z" fill="#F2BCC0"/>
<path d="M323.87 171.749C323.87 171.749 299.349 159.485 309.291 138.431C315.565 125.147 338.915 129.273 346.101 130.586C352.43 145.237 328.506 144.932 328.324 156.764C327.19 155.396 325.226 154.714 323.249 155.339C321.6 155.861 320.382 157.297 320.197 158.943C319.886 161.726 322.215 163.917 324.924 163.809L323.87 171.749" stroke="#D8262C" stroke-width="3" stroke-linejoin="bevel"/>
<path d="M332.874 176.41C332.874 176.41 339.187 179.451 346.521 177.64L350.395 191.595L333.855 194.555C331.787 202.066 328.682 205.208 325.524 208.588" stroke="#D8262C" stroke-width="3"/>
<path d="M308.065 248.761C285.763 255.634 278.851 242.129 278.851 233.555" stroke="#D8262C" stroke-width="3"/>
<path d="M339.32 225.312C339.32 225.312 319.878 229.677 311.715 243.879C310.055 246.765 307.731 249.427 305.153 252.042C300.426 256.863 294.88 261.535 291.267 267.203C290.486 268.422 290.701 269.986 291.911 270.823L302.009 279.191C304.42 280.866 307.223 282.039 310.211 282.039H322.866C322.866 274.118 319.868 274.091 314.801 272.471C314.801 272.471 309.372 269.837 309.723 262C310.562 261.367 311.578 260.679 312.73 259.934" stroke="#D8262C" stroke-width="3"/>
<path d="M346.917 239.933L347.347 239.635C357.014 232.915 358.596 226.122 357.229 220.965C357.17 220.742 357.102 220.519 357.034 220.304" stroke="#D8262C" stroke-width="3"/>
<path d="M328.969 261.926C327.856 262.671 326.88 263.359 326.069 263.964C327.661 271.363 333.1 272.583 333.1 272.583C338.168 274.202 340.179 274.23 340.179 282.151" stroke="#D8262C" stroke-width="3"/>
<path d="M294.063 223.877C284.909 234.266 275.746 234.266 275.746 234.266C269.237 189.746 302.051 167.932 323.479 171.753" stroke="#D8262C" stroke-width="3"/>
<path d="M294.711 197.153C294.711 197.153 291.932 213.48 291.282 217.923C290.63 222.367 292.354 223.967 295.965 223.873C299.601 223.778 330.175 217.284 330.175 217.284L338.885 215.131C344.825 213.945 348.324 219.84 351.213 221.256C356.131 223.665 357.923 221.021 358.628 217.667C359.554 213.269 353.807 208.8 353.118 208.283C350.481 206.305 336.443 207.468 336.443 207.468L307.637 210.036L309.647 201.063C309.647 201.063 297.464 202.686 292.598 194.555" stroke="#D8262C" stroke-width="3"/>
<path d="M322.781 196.052L335.689 170.461L338.059 170.203C345.033 169.443 349.431 165.03 348.634 158.383L352.43 156.697C352.43 156.697 346.34 142.47 344.366 140.92" stroke="#D8262C" stroke-width="3"/>
<path d="M324.457 170.822C313.837 178.5 326.343 185.181 322.654 196.674" stroke="#D8262C" stroke-width="3"/>
<path d="M350.581 188.14C350.581 188.14 354.362 186.915 365.474 182.606C374.89 178.954 387.801 159.696 387.801 159.696C387.801 159.696 392.832 156.086 392.832 151.742" stroke="#D8262C" stroke-width="3"/>
<path d="M305.156 252.038C305.156 252.038 309.83 259.506 315.689 261.367L347.343 239.635" stroke="#D8262C" stroke-width="3"/>
<path d="M322.249 256.863C322.249 256.863 328.872 262.763 332.778 263.694C332.778 263.694 350.218 250.18 353.284 247.872C353.284 247.872 361.877 241.599 363.752 240.361C384.6 226.605 368.829 211.304 364.542 211.304H356.301H355.822" stroke="#D8262C" stroke-width="3"/>
</svg>
